G75*
%MOIN*%
%OFA0B0*%
%FSLAX25Y25*%
%IPPOS*%
%LPD*%
%AMOC8*
5,1,8,0,0,1.08239X$1,22.5*
%
%ADD10C,0.00000*%
%ADD11OC8,0.06300*%
%ADD12C,0.06600*%
%ADD13C,0.05200*%
%ADD14C,0.06000*%
%ADD15OC8,0.05200*%
%ADD16R,0.06600X0.06600*%
%ADD17C,0.07050*%
%ADD18C,0.05937*%
%ADD19R,0.07400X0.07400*%
%ADD20C,0.07400*%
%ADD21C,0.01200*%
%ADD22C,0.00500*%
%ADD23C,0.01000*%
%ADD24R,0.03562X0.03562*%
%ADD25C,0.01600*%
%ADD26C,0.03200*%
%ADD27C,0.03600*%
D10*
X0003194Y0010283D02*
X0003194Y0204060D01*
X0003196Y0204185D01*
X0003202Y0204310D01*
X0003211Y0204434D01*
X0003225Y0204559D01*
X0003242Y0204682D01*
X0003263Y0204806D01*
X0003288Y0204928D01*
X0003317Y0205050D01*
X0003349Y0205171D01*
X0003385Y0205290D01*
X0003425Y0205409D01*
X0003468Y0205526D01*
X0003515Y0205642D01*
X0003565Y0205756D01*
X0003619Y0205869D01*
X0003677Y0205980D01*
X0003738Y0206089D01*
X0003802Y0206196D01*
X0003869Y0206301D01*
X0003940Y0206405D01*
X0004014Y0206505D01*
X0004090Y0206604D01*
X0004170Y0206700D01*
X0004253Y0206794D01*
X0004339Y0206885D01*
X0004427Y0206973D01*
X0004518Y0207059D01*
X0004612Y0207142D01*
X0004708Y0207222D01*
X0004807Y0207298D01*
X0004907Y0207372D01*
X0005011Y0207443D01*
X0005116Y0207510D01*
X0005223Y0207574D01*
X0005332Y0207635D01*
X0005443Y0207693D01*
X0005556Y0207747D01*
X0005670Y0207797D01*
X0005786Y0207844D01*
X0005903Y0207887D01*
X0006022Y0207927D01*
X0006141Y0207963D01*
X0006262Y0207995D01*
X0006384Y0208024D01*
X0006506Y0208049D01*
X0006630Y0208070D01*
X0006753Y0208087D01*
X0006878Y0208101D01*
X0007002Y0208110D01*
X0007127Y0208116D01*
X0007252Y0208118D01*
X0312131Y0208118D01*
X0312131Y0010283D01*
X0003194Y0010283D01*
X0006737Y0018157D02*
X0006739Y0018288D01*
X0006745Y0018420D01*
X0006755Y0018551D01*
X0006769Y0018682D01*
X0006787Y0018812D01*
X0006809Y0018941D01*
X0006834Y0019070D01*
X0006864Y0019198D01*
X0006898Y0019325D01*
X0006935Y0019452D01*
X0006976Y0019576D01*
X0007021Y0019700D01*
X0007070Y0019822D01*
X0007122Y0019943D01*
X0007178Y0020061D01*
X0007238Y0020179D01*
X0007301Y0020294D01*
X0007368Y0020407D01*
X0007438Y0020519D01*
X0007511Y0020628D01*
X0007587Y0020734D01*
X0007667Y0020839D01*
X0007750Y0020941D01*
X0007836Y0021040D01*
X0007925Y0021137D01*
X0008017Y0021231D01*
X0008112Y0021322D01*
X0008209Y0021411D01*
X0008309Y0021496D01*
X0008412Y0021578D01*
X0008517Y0021657D01*
X0008624Y0021733D01*
X0008734Y0021805D01*
X0008846Y0021874D01*
X0008960Y0021940D01*
X0009075Y0022002D01*
X0009193Y0022061D01*
X0009312Y0022116D01*
X0009433Y0022168D01*
X0009556Y0022215D01*
X0009680Y0022259D01*
X0009805Y0022300D01*
X0009931Y0022336D01*
X0010059Y0022369D01*
X0010187Y0022397D01*
X0010316Y0022422D01*
X0010446Y0022443D01*
X0010576Y0022460D01*
X0010707Y0022473D01*
X0010838Y0022482D01*
X0010969Y0022487D01*
X0011101Y0022488D01*
X0011232Y0022485D01*
X0011364Y0022478D01*
X0011495Y0022467D01*
X0011625Y0022452D01*
X0011755Y0022433D01*
X0011885Y0022410D01*
X0012013Y0022384D01*
X0012141Y0022353D01*
X0012268Y0022318D01*
X0012394Y0022280D01*
X0012518Y0022238D01*
X0012642Y0022192D01*
X0012763Y0022142D01*
X0012883Y0022089D01*
X0013002Y0022032D01*
X0013119Y0021972D01*
X0013233Y0021908D01*
X0013346Y0021840D01*
X0013457Y0021769D01*
X0013566Y0021695D01*
X0013672Y0021618D01*
X0013776Y0021537D01*
X0013877Y0021454D01*
X0013976Y0021367D01*
X0014072Y0021277D01*
X0014165Y0021184D01*
X0014256Y0021089D01*
X0014343Y0020991D01*
X0014428Y0020890D01*
X0014509Y0020787D01*
X0014587Y0020681D01*
X0014662Y0020573D01*
X0014734Y0020463D01*
X0014802Y0020351D01*
X0014867Y0020237D01*
X0014928Y0020120D01*
X0014986Y0020002D01*
X0015040Y0019882D01*
X0015091Y0019761D01*
X0015138Y0019638D01*
X0015181Y0019514D01*
X0015220Y0019389D01*
X0015256Y0019262D01*
X0015287Y0019134D01*
X0015315Y0019006D01*
X0015339Y0018877D01*
X0015359Y0018747D01*
X0015375Y0018616D01*
X0015387Y0018485D01*
X0015395Y0018354D01*
X0015399Y0018223D01*
X0015399Y0018091D01*
X0015395Y0017960D01*
X0015387Y0017829D01*
X0015375Y0017698D01*
X0015359Y0017567D01*
X0015339Y0017437D01*
X0015315Y0017308D01*
X0015287Y0017180D01*
X0015256Y0017052D01*
X0015220Y0016925D01*
X0015181Y0016800D01*
X0015138Y0016676D01*
X0015091Y0016553D01*
X0015040Y0016432D01*
X0014986Y0016312D01*
X0014928Y0016194D01*
X0014867Y0016077D01*
X0014802Y0015963D01*
X0014734Y0015851D01*
X0014662Y0015741D01*
X0014587Y0015633D01*
X0014509Y0015527D01*
X0014428Y0015424D01*
X0014343Y0015323D01*
X0014256Y0015225D01*
X0014165Y0015130D01*
X0014072Y0015037D01*
X0013976Y0014947D01*
X0013877Y0014860D01*
X0013776Y0014777D01*
X0013672Y0014696D01*
X0013566Y0014619D01*
X0013457Y0014545D01*
X0013346Y0014474D01*
X0013234Y0014406D01*
X0013119Y0014342D01*
X0013002Y0014282D01*
X0012883Y0014225D01*
X0012763Y0014172D01*
X0012642Y0014122D01*
X0012518Y0014076D01*
X0012394Y0014034D01*
X0012268Y0013996D01*
X0012141Y0013961D01*
X0012013Y0013930D01*
X0011885Y0013904D01*
X0011755Y0013881D01*
X0011625Y0013862D01*
X0011495Y0013847D01*
X0011364Y0013836D01*
X0011232Y0013829D01*
X0011101Y0013826D01*
X0010969Y0013827D01*
X0010838Y0013832D01*
X0010707Y0013841D01*
X0010576Y0013854D01*
X0010446Y0013871D01*
X0010316Y0013892D01*
X0010187Y0013917D01*
X0010059Y0013945D01*
X0009931Y0013978D01*
X0009805Y0014014D01*
X0009680Y0014055D01*
X0009556Y0014099D01*
X0009433Y0014146D01*
X0009312Y0014198D01*
X0009193Y0014253D01*
X0009075Y0014312D01*
X0008960Y0014374D01*
X0008846Y0014440D01*
X0008734Y0014509D01*
X0008624Y0014581D01*
X0008517Y0014657D01*
X0008412Y0014736D01*
X0008309Y0014818D01*
X0008209Y0014903D01*
X0008112Y0014992D01*
X0008017Y0015083D01*
X0007925Y0015177D01*
X0007836Y0015274D01*
X0007750Y0015373D01*
X0007667Y0015475D01*
X0007587Y0015580D01*
X0007511Y0015686D01*
X0007438Y0015795D01*
X0007368Y0015907D01*
X0007301Y0016020D01*
X0007238Y0016135D01*
X0007178Y0016253D01*
X0007122Y0016371D01*
X0007070Y0016492D01*
X0007021Y0016614D01*
X0006976Y0016738D01*
X0006935Y0016862D01*
X0006898Y0016989D01*
X0006864Y0017116D01*
X0006834Y0017244D01*
X0006809Y0017373D01*
X0006787Y0017502D01*
X0006769Y0017632D01*
X0006755Y0017763D01*
X0006745Y0017894D01*
X0006739Y0018026D01*
X0006737Y0018157D01*
X0006737Y0199260D02*
X0006739Y0199391D01*
X0006745Y0199523D01*
X0006755Y0199654D01*
X0006769Y0199785D01*
X0006787Y0199915D01*
X0006809Y0200044D01*
X0006834Y0200173D01*
X0006864Y0200301D01*
X0006898Y0200428D01*
X0006935Y0200555D01*
X0006976Y0200679D01*
X0007021Y0200803D01*
X0007070Y0200925D01*
X0007122Y0201046D01*
X0007178Y0201164D01*
X0007238Y0201282D01*
X0007301Y0201397D01*
X0007368Y0201510D01*
X0007438Y0201622D01*
X0007511Y0201731D01*
X0007587Y0201837D01*
X0007667Y0201942D01*
X0007750Y0202044D01*
X0007836Y0202143D01*
X0007925Y0202240D01*
X0008017Y0202334D01*
X0008112Y0202425D01*
X0008209Y0202514D01*
X0008309Y0202599D01*
X0008412Y0202681D01*
X0008517Y0202760D01*
X0008624Y0202836D01*
X0008734Y0202908D01*
X0008846Y0202977D01*
X0008960Y0203043D01*
X0009075Y0203105D01*
X0009193Y0203164D01*
X0009312Y0203219D01*
X0009433Y0203271D01*
X0009556Y0203318D01*
X0009680Y0203362D01*
X0009805Y0203403D01*
X0009931Y0203439D01*
X0010059Y0203472D01*
X0010187Y0203500D01*
X0010316Y0203525D01*
X0010446Y0203546D01*
X0010576Y0203563D01*
X0010707Y0203576D01*
X0010838Y0203585D01*
X0010969Y0203590D01*
X0011101Y0203591D01*
X0011232Y0203588D01*
X0011364Y0203581D01*
X0011495Y0203570D01*
X0011625Y0203555D01*
X0011755Y0203536D01*
X0011885Y0203513D01*
X0012013Y0203487D01*
X0012141Y0203456D01*
X0012268Y0203421D01*
X0012394Y0203383D01*
X0012518Y0203341D01*
X0012642Y0203295D01*
X0012763Y0203245D01*
X0012883Y0203192D01*
X0013002Y0203135D01*
X0013119Y0203075D01*
X0013233Y0203011D01*
X0013346Y0202943D01*
X0013457Y0202872D01*
X0013566Y0202798D01*
X0013672Y0202721D01*
X0013776Y0202640D01*
X0013877Y0202557D01*
X0013976Y0202470D01*
X0014072Y0202380D01*
X0014165Y0202287D01*
X0014256Y0202192D01*
X0014343Y0202094D01*
X0014428Y0201993D01*
X0014509Y0201890D01*
X0014587Y0201784D01*
X0014662Y0201676D01*
X0014734Y0201566D01*
X0014802Y0201454D01*
X0014867Y0201340D01*
X0014928Y0201223D01*
X0014986Y0201105D01*
X0015040Y0200985D01*
X0015091Y0200864D01*
X0015138Y0200741D01*
X0015181Y0200617D01*
X0015220Y0200492D01*
X0015256Y0200365D01*
X0015287Y0200237D01*
X0015315Y0200109D01*
X0015339Y0199980D01*
X0015359Y0199850D01*
X0015375Y0199719D01*
X0015387Y0199588D01*
X0015395Y0199457D01*
X0015399Y0199326D01*
X0015399Y0199194D01*
X0015395Y0199063D01*
X0015387Y0198932D01*
X0015375Y0198801D01*
X0015359Y0198670D01*
X0015339Y0198540D01*
X0015315Y0198411D01*
X0015287Y0198283D01*
X0015256Y0198155D01*
X0015220Y0198028D01*
X0015181Y0197903D01*
X0015138Y0197779D01*
X0015091Y0197656D01*
X0015040Y0197535D01*
X0014986Y0197415D01*
X0014928Y0197297D01*
X0014867Y0197180D01*
X0014802Y0197066D01*
X0014734Y0196954D01*
X0014662Y0196844D01*
X0014587Y0196736D01*
X0014509Y0196630D01*
X0014428Y0196527D01*
X0014343Y0196426D01*
X0014256Y0196328D01*
X0014165Y0196233D01*
X0014072Y0196140D01*
X0013976Y0196050D01*
X0013877Y0195963D01*
X0013776Y0195880D01*
X0013672Y0195799D01*
X0013566Y0195722D01*
X0013457Y0195648D01*
X0013346Y0195577D01*
X0013234Y0195509D01*
X0013119Y0195445D01*
X0013002Y0195385D01*
X0012883Y0195328D01*
X0012763Y0195275D01*
X0012642Y0195225D01*
X0012518Y0195179D01*
X0012394Y0195137D01*
X0012268Y0195099D01*
X0012141Y0195064D01*
X0012013Y0195033D01*
X0011885Y0195007D01*
X0011755Y0194984D01*
X0011625Y0194965D01*
X0011495Y0194950D01*
X0011364Y0194939D01*
X0011232Y0194932D01*
X0011101Y0194929D01*
X0010969Y0194930D01*
X0010838Y0194935D01*
X0010707Y0194944D01*
X0010576Y0194957D01*
X0010446Y0194974D01*
X0010316Y0194995D01*
X0010187Y0195020D01*
X0010059Y0195048D01*
X0009931Y0195081D01*
X0009805Y0195117D01*
X0009680Y0195158D01*
X0009556Y0195202D01*
X0009433Y0195249D01*
X0009312Y0195301D01*
X0009193Y0195356D01*
X0009075Y0195415D01*
X0008960Y0195477D01*
X0008846Y0195543D01*
X0008734Y0195612D01*
X0008624Y0195684D01*
X0008517Y0195760D01*
X0008412Y0195839D01*
X0008309Y0195921D01*
X0008209Y0196006D01*
X0008112Y0196095D01*
X0008017Y0196186D01*
X0007925Y0196280D01*
X0007836Y0196377D01*
X0007750Y0196476D01*
X0007667Y0196578D01*
X0007587Y0196683D01*
X0007511Y0196789D01*
X0007438Y0196898D01*
X0007368Y0197010D01*
X0007301Y0197123D01*
X0007238Y0197238D01*
X0007178Y0197356D01*
X0007122Y0197474D01*
X0007070Y0197595D01*
X0007021Y0197717D01*
X0006976Y0197841D01*
X0006935Y0197965D01*
X0006898Y0198092D01*
X0006864Y0198219D01*
X0006834Y0198347D01*
X0006809Y0198476D01*
X0006787Y0198605D01*
X0006769Y0198735D01*
X0006755Y0198866D01*
X0006745Y0198997D01*
X0006739Y0199129D01*
X0006737Y0199260D01*
X0298075Y0199260D02*
X0298077Y0199391D01*
X0298083Y0199523D01*
X0298093Y0199654D01*
X0298107Y0199785D01*
X0298125Y0199915D01*
X0298147Y0200044D01*
X0298172Y0200173D01*
X0298202Y0200301D01*
X0298236Y0200428D01*
X0298273Y0200555D01*
X0298314Y0200679D01*
X0298359Y0200803D01*
X0298408Y0200925D01*
X0298460Y0201046D01*
X0298516Y0201164D01*
X0298576Y0201282D01*
X0298639Y0201397D01*
X0298706Y0201510D01*
X0298776Y0201622D01*
X0298849Y0201731D01*
X0298925Y0201837D01*
X0299005Y0201942D01*
X0299088Y0202044D01*
X0299174Y0202143D01*
X0299263Y0202240D01*
X0299355Y0202334D01*
X0299450Y0202425D01*
X0299547Y0202514D01*
X0299647Y0202599D01*
X0299750Y0202681D01*
X0299855Y0202760D01*
X0299962Y0202836D01*
X0300072Y0202908D01*
X0300184Y0202977D01*
X0300298Y0203043D01*
X0300413Y0203105D01*
X0300531Y0203164D01*
X0300650Y0203219D01*
X0300771Y0203271D01*
X0300894Y0203318D01*
X0301018Y0203362D01*
X0301143Y0203403D01*
X0301269Y0203439D01*
X0301397Y0203472D01*
X0301525Y0203500D01*
X0301654Y0203525D01*
X0301784Y0203546D01*
X0301914Y0203563D01*
X0302045Y0203576D01*
X0302176Y0203585D01*
X0302307Y0203590D01*
X0302439Y0203591D01*
X0302570Y0203588D01*
X0302702Y0203581D01*
X0302833Y0203570D01*
X0302963Y0203555D01*
X0303093Y0203536D01*
X0303223Y0203513D01*
X0303351Y0203487D01*
X0303479Y0203456D01*
X0303606Y0203421D01*
X0303732Y0203383D01*
X0303856Y0203341D01*
X0303980Y0203295D01*
X0304101Y0203245D01*
X0304221Y0203192D01*
X0304340Y0203135D01*
X0304457Y0203075D01*
X0304571Y0203011D01*
X0304684Y0202943D01*
X0304795Y0202872D01*
X0304904Y0202798D01*
X0305010Y0202721D01*
X0305114Y0202640D01*
X0305215Y0202557D01*
X0305314Y0202470D01*
X0305410Y0202380D01*
X0305503Y0202287D01*
X0305594Y0202192D01*
X0305681Y0202094D01*
X0305766Y0201993D01*
X0305847Y0201890D01*
X0305925Y0201784D01*
X0306000Y0201676D01*
X0306072Y0201566D01*
X0306140Y0201454D01*
X0306205Y0201340D01*
X0306266Y0201223D01*
X0306324Y0201105D01*
X0306378Y0200985D01*
X0306429Y0200864D01*
X0306476Y0200741D01*
X0306519Y0200617D01*
X0306558Y0200492D01*
X0306594Y0200365D01*
X0306625Y0200237D01*
X0306653Y0200109D01*
X0306677Y0199980D01*
X0306697Y0199850D01*
X0306713Y0199719D01*
X0306725Y0199588D01*
X0306733Y0199457D01*
X0306737Y0199326D01*
X0306737Y0199194D01*
X0306733Y0199063D01*
X0306725Y0198932D01*
X0306713Y0198801D01*
X0306697Y0198670D01*
X0306677Y0198540D01*
X0306653Y0198411D01*
X0306625Y0198283D01*
X0306594Y0198155D01*
X0306558Y0198028D01*
X0306519Y0197903D01*
X0306476Y0197779D01*
X0306429Y0197656D01*
X0306378Y0197535D01*
X0306324Y0197415D01*
X0306266Y0197297D01*
X0306205Y0197180D01*
X0306140Y0197066D01*
X0306072Y0196954D01*
X0306000Y0196844D01*
X0305925Y0196736D01*
X0305847Y0196630D01*
X0305766Y0196527D01*
X0305681Y0196426D01*
X0305594Y0196328D01*
X0305503Y0196233D01*
X0305410Y0196140D01*
X0305314Y0196050D01*
X0305215Y0195963D01*
X0305114Y0195880D01*
X0305010Y0195799D01*
X0304904Y0195722D01*
X0304795Y0195648D01*
X0304684Y0195577D01*
X0304572Y0195509D01*
X0304457Y0195445D01*
X0304340Y0195385D01*
X0304221Y0195328D01*
X0304101Y0195275D01*
X0303980Y0195225D01*
X0303856Y0195179D01*
X0303732Y0195137D01*
X0303606Y0195099D01*
X0303479Y0195064D01*
X0303351Y0195033D01*
X0303223Y0195007D01*
X0303093Y0194984D01*
X0302963Y0194965D01*
X0302833Y0194950D01*
X0302702Y0194939D01*
X0302570Y0194932D01*
X0302439Y0194929D01*
X0302307Y0194930D01*
X0302176Y0194935D01*
X0302045Y0194944D01*
X0301914Y0194957D01*
X0301784Y0194974D01*
X0301654Y0194995D01*
X0301525Y0195020D01*
X0301397Y0195048D01*
X0301269Y0195081D01*
X0301143Y0195117D01*
X0301018Y0195158D01*
X0300894Y0195202D01*
X0300771Y0195249D01*
X0300650Y0195301D01*
X0300531Y0195356D01*
X0300413Y0195415D01*
X0300298Y0195477D01*
X0300184Y0195543D01*
X0300072Y0195612D01*
X0299962Y0195684D01*
X0299855Y0195760D01*
X0299750Y0195839D01*
X0299647Y0195921D01*
X0299547Y0196006D01*
X0299450Y0196095D01*
X0299355Y0196186D01*
X0299263Y0196280D01*
X0299174Y0196377D01*
X0299088Y0196476D01*
X0299005Y0196578D01*
X0298925Y0196683D01*
X0298849Y0196789D01*
X0298776Y0196898D01*
X0298706Y0197010D01*
X0298639Y0197123D01*
X0298576Y0197238D01*
X0298516Y0197356D01*
X0298460Y0197474D01*
X0298408Y0197595D01*
X0298359Y0197717D01*
X0298314Y0197841D01*
X0298273Y0197965D01*
X0298236Y0198092D01*
X0298202Y0198219D01*
X0298172Y0198347D01*
X0298147Y0198476D01*
X0298125Y0198605D01*
X0298107Y0198735D01*
X0298093Y0198866D01*
X0298083Y0198997D01*
X0298077Y0199129D01*
X0298075Y0199260D01*
X0302012Y0018157D02*
X0302014Y0018288D01*
X0302020Y0018420D01*
X0302030Y0018551D01*
X0302044Y0018682D01*
X0302062Y0018812D01*
X0302084Y0018941D01*
X0302109Y0019070D01*
X0302139Y0019198D01*
X0302173Y0019325D01*
X0302210Y0019452D01*
X0302251Y0019576D01*
X0302296Y0019700D01*
X0302345Y0019822D01*
X0302397Y0019943D01*
X0302453Y0020061D01*
X0302513Y0020179D01*
X0302576Y0020294D01*
X0302643Y0020407D01*
X0302713Y0020519D01*
X0302786Y0020628D01*
X0302862Y0020734D01*
X0302942Y0020839D01*
X0303025Y0020941D01*
X0303111Y0021040D01*
X0303200Y0021137D01*
X0303292Y0021231D01*
X0303387Y0021322D01*
X0303484Y0021411D01*
X0303584Y0021496D01*
X0303687Y0021578D01*
X0303792Y0021657D01*
X0303899Y0021733D01*
X0304009Y0021805D01*
X0304121Y0021874D01*
X0304235Y0021940D01*
X0304350Y0022002D01*
X0304468Y0022061D01*
X0304587Y0022116D01*
X0304708Y0022168D01*
X0304831Y0022215D01*
X0304955Y0022259D01*
X0305080Y0022300D01*
X0305206Y0022336D01*
X0305334Y0022369D01*
X0305462Y0022397D01*
X0305591Y0022422D01*
X0305721Y0022443D01*
X0305851Y0022460D01*
X0305982Y0022473D01*
X0306113Y0022482D01*
X0306244Y0022487D01*
X0306376Y0022488D01*
X0306507Y0022485D01*
X0306639Y0022478D01*
X0306770Y0022467D01*
X0306900Y0022452D01*
X0307030Y0022433D01*
X0307160Y0022410D01*
X0307288Y0022384D01*
X0307416Y0022353D01*
X0307543Y0022318D01*
X0307669Y0022280D01*
X0307793Y0022238D01*
X0307917Y0022192D01*
X0308038Y0022142D01*
X0308158Y0022089D01*
X0308277Y0022032D01*
X0308394Y0021972D01*
X0308508Y0021908D01*
X0308621Y0021840D01*
X0308732Y0021769D01*
X0308841Y0021695D01*
X0308947Y0021618D01*
X0309051Y0021537D01*
X0309152Y0021454D01*
X0309251Y0021367D01*
X0309347Y0021277D01*
X0309440Y0021184D01*
X0309531Y0021089D01*
X0309618Y0020991D01*
X0309703Y0020890D01*
X0309784Y0020787D01*
X0309862Y0020681D01*
X0309937Y0020573D01*
X0310009Y0020463D01*
X0310077Y0020351D01*
X0310142Y0020237D01*
X0310203Y0020120D01*
X0310261Y0020002D01*
X0310315Y0019882D01*
X0310366Y0019761D01*
X0310413Y0019638D01*
X0310456Y0019514D01*
X0310495Y0019389D01*
X0310531Y0019262D01*
X0310562Y0019134D01*
X0310590Y0019006D01*
X0310614Y0018877D01*
X0310634Y0018747D01*
X0310650Y0018616D01*
X0310662Y0018485D01*
X0310670Y0018354D01*
X0310674Y0018223D01*
X0310674Y0018091D01*
X0310670Y0017960D01*
X0310662Y0017829D01*
X0310650Y0017698D01*
X0310634Y0017567D01*
X0310614Y0017437D01*
X0310590Y0017308D01*
X0310562Y0017180D01*
X0310531Y0017052D01*
X0310495Y0016925D01*
X0310456Y0016800D01*
X0310413Y0016676D01*
X0310366Y0016553D01*
X0310315Y0016432D01*
X0310261Y0016312D01*
X0310203Y0016194D01*
X0310142Y0016077D01*
X0310077Y0015963D01*
X0310009Y0015851D01*
X0309937Y0015741D01*
X0309862Y0015633D01*
X0309784Y0015527D01*
X0309703Y0015424D01*
X0309618Y0015323D01*
X0309531Y0015225D01*
X0309440Y0015130D01*
X0309347Y0015037D01*
X0309251Y0014947D01*
X0309152Y0014860D01*
X0309051Y0014777D01*
X0308947Y0014696D01*
X0308841Y0014619D01*
X0308732Y0014545D01*
X0308621Y0014474D01*
X0308509Y0014406D01*
X0308394Y0014342D01*
X0308277Y0014282D01*
X0308158Y0014225D01*
X0308038Y0014172D01*
X0307917Y0014122D01*
X0307793Y0014076D01*
X0307669Y0014034D01*
X0307543Y0013996D01*
X0307416Y0013961D01*
X0307288Y0013930D01*
X0307160Y0013904D01*
X0307030Y0013881D01*
X0306900Y0013862D01*
X0306770Y0013847D01*
X0306639Y0013836D01*
X0306507Y0013829D01*
X0306376Y0013826D01*
X0306244Y0013827D01*
X0306113Y0013832D01*
X0305982Y0013841D01*
X0305851Y0013854D01*
X0305721Y0013871D01*
X0305591Y0013892D01*
X0305462Y0013917D01*
X0305334Y0013945D01*
X0305206Y0013978D01*
X0305080Y0014014D01*
X0304955Y0014055D01*
X0304831Y0014099D01*
X0304708Y0014146D01*
X0304587Y0014198D01*
X0304468Y0014253D01*
X0304350Y0014312D01*
X0304235Y0014374D01*
X0304121Y0014440D01*
X0304009Y0014509D01*
X0303899Y0014581D01*
X0303792Y0014657D01*
X0303687Y0014736D01*
X0303584Y0014818D01*
X0303484Y0014903D01*
X0303387Y0014992D01*
X0303292Y0015083D01*
X0303200Y0015177D01*
X0303111Y0015274D01*
X0303025Y0015373D01*
X0302942Y0015475D01*
X0302862Y0015580D01*
X0302786Y0015686D01*
X0302713Y0015795D01*
X0302643Y0015907D01*
X0302576Y0016020D01*
X0302513Y0016135D01*
X0302453Y0016253D01*
X0302397Y0016371D01*
X0302345Y0016492D01*
X0302296Y0016614D01*
X0302251Y0016738D01*
X0302210Y0016862D01*
X0302173Y0016989D01*
X0302139Y0017116D01*
X0302109Y0017244D01*
X0302084Y0017373D01*
X0302062Y0017502D01*
X0302044Y0017632D01*
X0302030Y0017763D01*
X0302020Y0017894D01*
X0302014Y0018026D01*
X0302012Y0018157D01*
D11*
X0215202Y0047567D03*
X0205202Y0047567D03*
X0108587Y0047567D03*
X0098587Y0047567D03*
X0047170Y0055126D03*
X0047170Y0035126D03*
X0056973Y0113433D03*
X0056973Y0123433D03*
X0010359Y0176425D03*
X0010359Y0186425D03*
X0221580Y0142055D03*
X0231580Y0142055D03*
X0292249Y0168551D03*
X0292249Y0178551D03*
D12*
X0236028Y0132606D03*
X0236028Y0122606D03*
X0236028Y0112606D03*
X0236028Y0102606D03*
X0236028Y0092606D03*
X0236028Y0082606D03*
X0236028Y0072606D03*
X0236028Y0062606D03*
X0206028Y0062606D03*
X0206028Y0072606D03*
X0206028Y0082606D03*
X0206028Y0092606D03*
X0206028Y0102606D03*
X0206028Y0112606D03*
X0206028Y0122606D03*
X0189099Y0061937D03*
X0149099Y0061937D03*
D13*
X0130910Y0077565D02*
X0130910Y0082765D01*
X0120910Y0082765D02*
X0120910Y0077565D01*
X0110910Y0077565D02*
X0110910Y0082765D01*
X0100910Y0082765D02*
X0100910Y0077565D01*
X0090910Y0077565D02*
X0090910Y0082765D01*
X0080910Y0082765D02*
X0080910Y0077565D01*
X0070910Y0077565D02*
X0070910Y0082765D01*
X0070910Y0107565D02*
X0070910Y0112765D01*
X0080910Y0112765D02*
X0080910Y0107565D01*
X0090910Y0107565D02*
X0090910Y0112765D01*
X0100910Y0112765D02*
X0100910Y0107565D01*
X0110910Y0107565D02*
X0110910Y0112765D01*
X0120910Y0112765D02*
X0120910Y0107565D01*
X0130910Y0107565D02*
X0130910Y0112765D01*
D14*
X0194209Y0168984D02*
X0200209Y0168984D01*
X0210391Y0168984D02*
X0216391Y0168984D01*
X0226572Y0168984D02*
X0232572Y0168984D01*
X0241217Y0168551D02*
X0247217Y0168551D01*
X0257398Y0168551D02*
X0263398Y0168551D01*
X0273580Y0168551D02*
X0279580Y0168551D01*
X0279580Y0178551D02*
X0273580Y0178551D01*
X0263398Y0178551D02*
X0257398Y0178551D01*
X0247217Y0178551D02*
X0241217Y0178551D01*
X0232572Y0178984D02*
X0226572Y0178984D01*
X0216391Y0178984D02*
X0210391Y0178984D01*
X0200209Y0178984D02*
X0194209Y0178984D01*
X0194209Y0188984D02*
X0200209Y0188984D01*
X0210391Y0188984D02*
X0216391Y0188984D01*
X0226572Y0188984D02*
X0232572Y0188984D01*
X0241217Y0188551D02*
X0247217Y0188551D01*
X0257398Y0188551D02*
X0263398Y0188551D01*
X0273580Y0188551D02*
X0279580Y0188551D01*
D15*
X0054493Y0076504D03*
X0051737Y0092252D03*
X0052918Y0104063D03*
X0012918Y0104063D03*
X0011737Y0092252D03*
X0014493Y0076504D03*
D16*
X0206028Y0132606D03*
D17*
X0181619Y0025462D02*
X0181619Y0018412D01*
X0161934Y0018412D02*
X0161934Y0025462D01*
X0267603Y0025462D02*
X0267603Y0018412D01*
X0287288Y0018412D02*
X0287288Y0025462D01*
X0021325Y0040717D02*
X0014275Y0040717D01*
X0014275Y0060402D02*
X0021325Y0060402D01*
D18*
X0100044Y0025969D02*
X0100044Y0020031D01*
X0110044Y0020031D02*
X0110044Y0025969D01*
X0120044Y0025969D02*
X0120044Y0020031D01*
X0130044Y0020031D02*
X0130044Y0025969D01*
X0140044Y0025969D02*
X0140044Y0020031D01*
X0203824Y0021331D02*
X0203824Y0027268D01*
X0213824Y0027268D02*
X0213824Y0021331D01*
X0223824Y0021331D02*
X0223824Y0027268D01*
X0233824Y0027268D02*
X0233824Y0021331D01*
X0243824Y0021331D02*
X0243824Y0027268D01*
D19*
X0024729Y0135087D03*
D20*
X0034729Y0135087D03*
X0044729Y0135087D03*
X0054729Y0135087D03*
X0064729Y0135087D03*
X0074729Y0135087D03*
X0084729Y0135087D03*
X0094729Y0135087D03*
X0104729Y0135087D03*
X0114729Y0135087D03*
X0124729Y0135087D03*
X0134729Y0135087D03*
X0134729Y0145087D03*
X0134729Y0155087D03*
X0134729Y0165087D03*
X0134729Y0175087D03*
X0134729Y0185087D03*
X0134729Y0195087D03*
X0124729Y0195087D03*
X0114729Y0195087D03*
X0104729Y0195087D03*
X0094729Y0195087D03*
X0084729Y0195087D03*
X0074729Y0195087D03*
X0064729Y0195087D03*
X0054729Y0195087D03*
X0044729Y0195087D03*
X0034729Y0195087D03*
X0024729Y0195087D03*
X0064729Y0185087D03*
X0064729Y0145087D03*
D21*
X0060290Y0146914D02*
X0028687Y0146914D01*
X0029885Y0148112D02*
X0060967Y0148112D01*
X0060660Y0147806D02*
X0059929Y0146041D01*
X0059929Y0144132D01*
X0060660Y0142368D01*
X0062010Y0141017D01*
X0063774Y0140287D01*
X0065684Y0140287D01*
X0067448Y0141017D01*
X0068798Y0142368D01*
X0069529Y0144132D01*
X0069529Y0146041D01*
X0068798Y0147806D01*
X0067520Y0149083D01*
X0078131Y0149083D01*
X0090293Y0136921D01*
X0089929Y0136041D01*
X0089929Y0134132D01*
X0090660Y0132368D01*
X0092010Y0131017D01*
X0093774Y0130287D01*
X0095684Y0130287D01*
X0097448Y0131017D01*
X0098798Y0132368D01*
X0099529Y0134132D01*
X0099529Y0136041D01*
X0098798Y0137806D01*
X0097448Y0139156D01*
X0095684Y0139887D01*
X0093774Y0139887D01*
X0092416Y0139324D01*
X0079456Y0152283D01*
X0071998Y0152283D01*
X0076723Y0157009D01*
X0080234Y0157009D01*
X0080878Y0157653D01*
X0080878Y0162127D01*
X0080234Y0162771D01*
X0075760Y0162771D01*
X0075116Y0162127D01*
X0075116Y0160210D01*
X0068990Y0154083D01*
X0028631Y0154083D01*
X0016931Y0142383D01*
X0015994Y0141446D01*
X0015994Y0129321D01*
X0049294Y0096021D01*
X0049783Y0095531D01*
X0048037Y0093785D01*
X0048037Y0090719D01*
X0050204Y0088552D01*
X0053270Y0088552D01*
X0055437Y0090719D01*
X0055437Y0093785D01*
X0054138Y0095083D01*
X0093431Y0095083D01*
X0102334Y0086180D01*
X0101646Y0086465D01*
X0100174Y0086465D01*
X0098814Y0085902D01*
X0097774Y0084861D01*
X0097658Y0084582D01*
X0097456Y0084783D01*
X0093856Y0088383D01*
X0077231Y0088383D01*
X0076294Y0087446D01*
X0073878Y0085030D01*
X0073006Y0085902D01*
X0071646Y0086465D01*
X0070174Y0086465D01*
X0068814Y0085902D01*
X0067774Y0084861D01*
X0067210Y0083501D01*
X0067210Y0076829D01*
X0067774Y0075469D01*
X0068814Y0074429D01*
X0070174Y0073865D01*
X0071646Y0073865D01*
X0073006Y0074429D01*
X0074047Y0075469D01*
X0074610Y0076829D01*
X0074610Y0081237D01*
X0077448Y0084075D01*
X0077210Y0083501D01*
X0077210Y0076829D01*
X0077774Y0075469D01*
X0078814Y0074429D01*
X0080174Y0073865D01*
X0081646Y0073865D01*
X0083006Y0074429D01*
X0084047Y0075469D01*
X0084369Y0076246D01*
X0108298Y0052317D01*
X0106620Y0052317D01*
X0103837Y0049534D01*
X0103837Y0047767D01*
X0108387Y0047767D01*
X0108387Y0047367D01*
X0103837Y0047367D01*
X0103837Y0045599D01*
X0106620Y0042817D01*
X0108387Y0042817D01*
X0108387Y0047367D01*
X0108787Y0047367D01*
X0108787Y0042817D01*
X0110555Y0042817D01*
X0113337Y0045599D01*
X0113337Y0047277D01*
X0127594Y0033021D01*
X0127594Y0029272D01*
X0126595Y0028273D01*
X0125976Y0026778D01*
X0125976Y0019222D01*
X0126595Y0017727D01*
X0127739Y0016582D01*
X0129235Y0015963D01*
X0130853Y0015963D01*
X0132349Y0016582D01*
X0133493Y0017727D01*
X0134113Y0019222D01*
X0134113Y0026778D01*
X0133493Y0028273D01*
X0132349Y0029418D01*
X0130853Y0030037D01*
X0130794Y0030037D01*
X0130794Y0032521D01*
X0136140Y0027174D01*
X0135976Y0026778D01*
X0135976Y0019222D01*
X0136595Y0017727D01*
X0137739Y0016582D01*
X0139235Y0015963D01*
X0140853Y0015963D01*
X0142349Y0016582D01*
X0143493Y0017727D01*
X0144113Y0019222D01*
X0144113Y0026778D01*
X0143493Y0028273D01*
X0142349Y0029418D01*
X0140853Y0030037D01*
X0139235Y0030037D01*
X0138222Y0029618D01*
X0098394Y0069446D01*
X0098394Y0074849D01*
X0098814Y0074429D01*
X0100174Y0073865D01*
X0101646Y0073865D01*
X0103006Y0074429D01*
X0104047Y0075469D01*
X0104610Y0076829D01*
X0104610Y0083501D01*
X0104325Y0084189D01*
X0107210Y0081304D01*
X0107210Y0076829D01*
X0107774Y0075469D01*
X0108814Y0074429D01*
X0110174Y0073865D01*
X0111646Y0073865D01*
X0113006Y0074429D01*
X0114047Y0075469D01*
X0114610Y0076829D01*
X0114610Y0083501D01*
X0114396Y0084018D01*
X0117210Y0081204D01*
X0117210Y0076829D01*
X0117774Y0075469D01*
X0118814Y0074429D01*
X0120174Y0073865D01*
X0121646Y0073865D01*
X0123006Y0074429D01*
X0124047Y0075469D01*
X0124610Y0076829D01*
X0124610Y0083501D01*
X0124047Y0084861D01*
X0123006Y0085902D01*
X0121646Y0086465D01*
X0120174Y0086465D01*
X0118814Y0085902D01*
X0117926Y0085014D01*
X0102894Y0100046D01*
X0101956Y0100983D01*
X0079095Y0100983D01*
X0079452Y0101341D01*
X0079894Y0102407D01*
X0079894Y0103560D01*
X0079683Y0104069D01*
X0080174Y0103865D01*
X0081646Y0103865D01*
X0083006Y0104429D01*
X0084047Y0105469D01*
X0084610Y0106829D01*
X0084610Y0113501D01*
X0084047Y0114861D01*
X0083006Y0115902D01*
X0081646Y0116465D01*
X0080174Y0116465D01*
X0078814Y0115902D01*
X0077774Y0114861D01*
X0077210Y0113501D01*
X0077210Y0106829D01*
X0077609Y0105868D01*
X0077571Y0105883D01*
X0076417Y0105883D01*
X0075351Y0105442D01*
X0074535Y0104626D01*
X0074518Y0104583D01*
X0073868Y0104583D01*
X0074114Y0104829D01*
X0074502Y0105364D01*
X0074803Y0105953D01*
X0075007Y0106582D01*
X0075110Y0107235D01*
X0075110Y0109965D01*
X0071110Y0109965D01*
X0071110Y0110365D01*
X0075110Y0110365D01*
X0075110Y0113096D01*
X0075007Y0113749D01*
X0074803Y0114378D01*
X0074502Y0114967D01*
X0074114Y0115501D01*
X0073646Y0115969D01*
X0073112Y0116358D01*
X0072522Y0116658D01*
X0071894Y0116862D01*
X0071241Y0116965D01*
X0071110Y0116965D01*
X0071110Y0110365D01*
X0070710Y0110365D01*
X0070710Y0109965D01*
X0066710Y0109965D01*
X0066710Y0107235D01*
X0066814Y0106582D01*
X0067018Y0105953D01*
X0067257Y0105483D01*
X0056618Y0105483D01*
X0056618Y0105596D01*
X0054451Y0107763D01*
X0051386Y0107763D01*
X0049218Y0105596D01*
X0049218Y0103322D01*
X0022253Y0130287D01*
X0028885Y0130287D01*
X0029529Y0130931D01*
X0029529Y0139242D01*
X0028885Y0139887D01*
X0021660Y0139887D01*
X0030856Y0149083D01*
X0061938Y0149083D01*
X0060660Y0147806D01*
X0059929Y0145715D02*
X0027488Y0145715D01*
X0026290Y0144517D02*
X0059929Y0144517D01*
X0060266Y0143318D02*
X0025091Y0143318D01*
X0023893Y0142120D02*
X0060908Y0142120D01*
X0062242Y0140921D02*
X0022694Y0140921D01*
X0019064Y0144517D02*
X0007131Y0144517D01*
X0007131Y0145715D02*
X0020263Y0145715D01*
X0021461Y0146914D02*
X0007131Y0146914D01*
X0007131Y0148112D02*
X0022660Y0148112D01*
X0023858Y0149311D02*
X0007131Y0149311D01*
X0007131Y0150509D02*
X0025057Y0150509D01*
X0026255Y0151708D02*
X0007131Y0151708D01*
X0007131Y0152906D02*
X0027454Y0152906D01*
X0017866Y0143318D02*
X0007131Y0143318D01*
X0007131Y0142120D02*
X0016667Y0142120D01*
X0015994Y0140921D02*
X0007131Y0140921D01*
X0007131Y0139723D02*
X0015994Y0139723D01*
X0015994Y0138524D02*
X0007131Y0138524D01*
X0007131Y0137326D02*
X0015994Y0137326D01*
X0015994Y0136127D02*
X0007131Y0136127D01*
X0007131Y0134929D02*
X0015994Y0134929D01*
X0015994Y0133730D02*
X0007131Y0133730D01*
X0007131Y0132532D02*
X0015994Y0132532D01*
X0015994Y0131333D02*
X0007131Y0131333D01*
X0007131Y0130135D02*
X0015994Y0130135D01*
X0016378Y0128936D02*
X0007131Y0128936D01*
X0007131Y0127738D02*
X0017577Y0127738D01*
X0018775Y0126539D02*
X0007131Y0126539D01*
X0007131Y0125341D02*
X0019974Y0125341D01*
X0021172Y0124142D02*
X0007131Y0124142D01*
X0007131Y0122944D02*
X0022371Y0122944D01*
X0023569Y0121745D02*
X0007131Y0121745D01*
X0007131Y0120547D02*
X0024768Y0120547D01*
X0025966Y0119348D02*
X0007131Y0119348D01*
X0007131Y0118149D02*
X0027165Y0118149D01*
X0028363Y0116951D02*
X0007131Y0116951D01*
X0007131Y0115752D02*
X0029562Y0115752D01*
X0030760Y0114554D02*
X0007131Y0114554D01*
X0007131Y0113355D02*
X0031959Y0113355D01*
X0033157Y0112157D02*
X0007131Y0112157D01*
X0007131Y0110958D02*
X0034356Y0110958D01*
X0035555Y0109760D02*
X0007131Y0109760D01*
X0007131Y0108561D02*
X0036753Y0108561D01*
X0037952Y0107363D02*
X0014851Y0107363D01*
X0014451Y0107763D02*
X0011386Y0107763D01*
X0009218Y0105596D01*
X0009218Y0102530D01*
X0011386Y0100363D01*
X0014451Y0100363D01*
X0016618Y0102530D01*
X0016618Y0105596D01*
X0014451Y0107763D01*
X0016049Y0106164D02*
X0039150Y0106164D01*
X0040349Y0104966D02*
X0016618Y0104966D01*
X0016618Y0103767D02*
X0041547Y0103767D01*
X0042746Y0102569D02*
X0016618Y0102569D01*
X0015458Y0101370D02*
X0043944Y0101370D01*
X0045143Y0100172D02*
X0007131Y0100172D01*
X0007131Y0101370D02*
X0010378Y0101370D01*
X0009218Y0102569D02*
X0007131Y0102569D01*
X0007131Y0103767D02*
X0009218Y0103767D01*
X0009218Y0104966D02*
X0007131Y0104966D01*
X0007131Y0106164D02*
X0009787Y0106164D01*
X0010985Y0107363D02*
X0007131Y0107363D01*
X0007131Y0098973D02*
X0046341Y0098973D01*
X0047540Y0097775D02*
X0007131Y0097775D01*
X0007131Y0096576D02*
X0048738Y0096576D01*
X0049630Y0095378D02*
X0013844Y0095378D01*
X0013270Y0095952D02*
X0010204Y0095952D01*
X0008037Y0093785D01*
X0008037Y0090719D01*
X0010204Y0088552D01*
X0013270Y0088552D01*
X0015437Y0090719D01*
X0015437Y0093785D01*
X0013270Y0095952D01*
X0015042Y0094179D02*
X0048432Y0094179D01*
X0048037Y0092981D02*
X0015437Y0092981D01*
X0015437Y0091782D02*
X0048037Y0091782D01*
X0048173Y0090584D02*
X0015301Y0090584D01*
X0014103Y0089385D02*
X0049371Y0089385D01*
X0054103Y0089385D02*
X0099129Y0089385D01*
X0097931Y0090584D02*
X0055301Y0090584D01*
X0055437Y0091782D02*
X0096732Y0091782D01*
X0095534Y0092981D02*
X0055437Y0092981D01*
X0055042Y0094179D02*
X0094335Y0094179D01*
X0102768Y0100172D02*
X0177659Y0100172D01*
X0177659Y0101370D02*
X0079464Y0101370D01*
X0079894Y0102569D02*
X0177659Y0102569D01*
X0177659Y0103767D02*
X0079808Y0103767D01*
X0077486Y0106164D02*
X0074871Y0106164D01*
X0074875Y0104966D02*
X0074213Y0104966D01*
X0075110Y0107363D02*
X0077210Y0107363D01*
X0077210Y0108561D02*
X0075110Y0108561D01*
X0075110Y0109760D02*
X0077210Y0109760D01*
X0077210Y0110958D02*
X0075110Y0110958D01*
X0075110Y0112157D02*
X0077210Y0112157D01*
X0077210Y0113355D02*
X0075069Y0113355D01*
X0074713Y0114554D02*
X0077646Y0114554D01*
X0078665Y0115752D02*
X0073863Y0115752D01*
X0071110Y0115752D02*
X0070710Y0115752D01*
X0070710Y0114554D02*
X0071110Y0114554D01*
X0071110Y0113355D02*
X0070710Y0113355D01*
X0070710Y0112157D02*
X0071110Y0112157D01*
X0071110Y0110958D02*
X0070710Y0110958D01*
X0070710Y0110365D02*
X0070710Y0116965D01*
X0070580Y0116965D01*
X0069927Y0116862D01*
X0069298Y0116658D01*
X0068709Y0116358D01*
X0068174Y0115969D01*
X0067707Y0115501D01*
X0067318Y0114967D01*
X0067018Y0114378D01*
X0066814Y0113749D01*
X0066710Y0113096D01*
X0066710Y0110365D01*
X0070710Y0110365D01*
X0066710Y0110958D02*
X0061216Y0110958D01*
X0061723Y0111466D02*
X0061723Y0113233D01*
X0057173Y0113233D01*
X0057173Y0108683D01*
X0058941Y0108683D01*
X0061723Y0111466D01*
X0061723Y0112157D02*
X0066710Y0112157D01*
X0066751Y0113355D02*
X0057173Y0113355D01*
X0057173Y0113233D02*
X0057173Y0113633D01*
X0056773Y0113633D01*
X0056773Y0113233D01*
X0052223Y0113233D01*
X0052223Y0111466D01*
X0055006Y0108683D01*
X0056773Y0108683D01*
X0056773Y0113233D01*
X0057173Y0113233D01*
X0057173Y0113633D02*
X0061723Y0113633D01*
X0061723Y0115401D01*
X0058941Y0118183D01*
X0057173Y0118183D01*
X0057173Y0113633D01*
X0056773Y0113633D02*
X0056773Y0118183D01*
X0055006Y0118183D01*
X0052223Y0115401D01*
X0052223Y0113633D01*
X0056773Y0113633D01*
X0056773Y0113355D02*
X0039184Y0113355D01*
X0040383Y0112157D02*
X0052223Y0112157D01*
X0052730Y0110958D02*
X0041581Y0110958D01*
X0042780Y0109760D02*
X0053929Y0109760D01*
X0054851Y0107363D02*
X0066710Y0107363D01*
X0066710Y0108561D02*
X0043978Y0108561D01*
X0045177Y0107363D02*
X0050985Y0107363D01*
X0049787Y0106164D02*
X0046376Y0106164D01*
X0047574Y0104966D02*
X0049218Y0104966D01*
X0049218Y0103767D02*
X0048773Y0103767D01*
X0056049Y0106164D02*
X0066949Y0106164D01*
X0066710Y0109760D02*
X0060018Y0109760D01*
X0057173Y0109760D02*
X0056773Y0109760D01*
X0056773Y0110958D02*
X0057173Y0110958D01*
X0057173Y0112157D02*
X0056773Y0112157D01*
X0056773Y0114554D02*
X0057173Y0114554D01*
X0057173Y0115752D02*
X0056773Y0115752D01*
X0056773Y0116951D02*
X0057173Y0116951D01*
X0057173Y0118149D02*
X0056773Y0118149D01*
X0054972Y0118149D02*
X0034390Y0118149D01*
X0035589Y0116951D02*
X0053774Y0116951D01*
X0052575Y0115752D02*
X0036787Y0115752D01*
X0037986Y0114554D02*
X0052223Y0114554D01*
X0055213Y0119183D02*
X0058734Y0119183D01*
X0061223Y0121673D01*
X0061223Y0123691D01*
X0063731Y0121183D01*
X0201855Y0121183D01*
X0202298Y0120114D01*
X0203536Y0118876D01*
X0205153Y0118206D01*
X0206904Y0118206D01*
X0208521Y0118876D01*
X0209494Y0119849D01*
X0209494Y0115363D01*
X0208521Y0116336D01*
X0206904Y0117006D01*
X0205153Y0117006D01*
X0203536Y0116336D01*
X0202506Y0115306D01*
X0196739Y0115306D01*
X0196644Y0115346D01*
X0183759Y0115346D01*
X0182767Y0114935D01*
X0178830Y0110998D01*
X0178070Y0110238D01*
X0177659Y0109246D01*
X0177659Y0046835D01*
X0160839Y0030014D01*
X0159314Y0029383D01*
X0158013Y0028082D01*
X0157309Y0026382D01*
X0157309Y0017492D01*
X0158013Y0015792D01*
X0159314Y0014491D01*
X0159967Y0014220D01*
X0015518Y0014220D01*
X0016096Y0014798D01*
X0016998Y0016978D01*
X0016998Y0019337D01*
X0016096Y0021517D01*
X0014427Y0023185D01*
X0012247Y0024088D01*
X0009888Y0024088D01*
X0007708Y0023185D01*
X0007131Y0022608D01*
X0007131Y0173643D01*
X0008599Y0172175D01*
X0012119Y0172175D01*
X0014609Y0174665D01*
X0014609Y0178186D01*
X0012119Y0180675D01*
X0008599Y0180675D01*
X0007131Y0179207D01*
X0007131Y0182936D01*
X0008392Y0181675D01*
X0010159Y0181675D01*
X0010159Y0186225D01*
X0010559Y0186225D01*
X0010559Y0181675D01*
X0012327Y0181675D01*
X0015109Y0184458D01*
X0015109Y0186225D01*
X0010559Y0186225D01*
X0010559Y0186625D01*
X0015109Y0186625D01*
X0015109Y0188393D01*
X0012327Y0191175D01*
X0010559Y0191175D01*
X0010559Y0186625D01*
X0010159Y0186625D01*
X0010159Y0191175D01*
X0008392Y0191175D01*
X0007131Y0189914D01*
X0007131Y0194810D01*
X0007708Y0194232D01*
X0009888Y0193329D01*
X0012247Y0193329D01*
X0014427Y0194232D01*
X0016096Y0195900D01*
X0016998Y0198080D01*
X0016998Y0200440D01*
X0016096Y0202619D01*
X0015518Y0203197D01*
X0050744Y0203197D01*
X0046921Y0199374D01*
X0045684Y0199887D01*
X0043774Y0199887D01*
X0042010Y0199156D01*
X0040660Y0197806D01*
X0039929Y0196041D01*
X0039929Y0194132D01*
X0040660Y0192368D01*
X0042010Y0191017D01*
X0043774Y0190287D01*
X0045684Y0190287D01*
X0047448Y0191017D01*
X0048798Y0192368D01*
X0048916Y0192652D01*
X0062635Y0178933D01*
X0131788Y0178933D01*
X0130660Y0177806D01*
X0129929Y0176041D01*
X0129929Y0174132D01*
X0130660Y0172368D01*
X0132010Y0171017D01*
X0133774Y0170287D01*
X0135684Y0170287D01*
X0137448Y0171017D01*
X0138798Y0172368D01*
X0139529Y0174132D01*
X0139529Y0176041D01*
X0138798Y0177806D01*
X0137587Y0179017D01*
X0138294Y0179724D01*
X0140003Y0181433D01*
X0190303Y0181433D01*
X0190275Y0181395D01*
X0189946Y0180750D01*
X0189723Y0180061D01*
X0189615Y0179384D01*
X0196809Y0179384D01*
X0196809Y0178584D01*
X0189615Y0178584D01*
X0189723Y0177907D01*
X0189946Y0177218D01*
X0190275Y0176573D01*
X0190701Y0175988D01*
X0191213Y0175476D01*
X0191799Y0175050D01*
X0192444Y0174721D01*
X0193132Y0174498D01*
X0193847Y0174384D01*
X0196809Y0174384D01*
X0196809Y0178584D01*
X0197609Y0178584D01*
X0197609Y0174384D01*
X0200571Y0174384D01*
X0201287Y0174498D01*
X0201975Y0174721D01*
X0202620Y0175050D01*
X0203206Y0175476D01*
X0203718Y0175988D01*
X0204144Y0176573D01*
X0204472Y0177218D01*
X0204696Y0177907D01*
X0204803Y0178584D01*
X0197610Y0178584D01*
X0197610Y0179384D01*
X0204803Y0179384D01*
X0204696Y0180061D01*
X0204472Y0180750D01*
X0204144Y0181395D01*
X0204116Y0181433D01*
X0206484Y0181433D01*
X0206456Y0181395D01*
X0206128Y0180750D01*
X0205904Y0180061D01*
X0205797Y0179384D01*
X0212990Y0179384D01*
X0212990Y0178584D01*
X0205797Y0178584D01*
X0205904Y0177907D01*
X0206128Y0177218D01*
X0206456Y0176573D01*
X0206882Y0175988D01*
X0207394Y0175476D01*
X0207980Y0175050D01*
X0208625Y0174721D01*
X0209313Y0174498D01*
X0210029Y0174384D01*
X0212991Y0174384D01*
X0212991Y0178584D01*
X0213791Y0178584D01*
X0213791Y0179384D01*
X0220985Y0179384D01*
X0220877Y0180061D01*
X0220654Y0180750D01*
X0220325Y0181395D01*
X0220297Y0181433D01*
X0222665Y0181433D01*
X0222637Y0181395D01*
X0222309Y0180750D01*
X0222085Y0180061D01*
X0221978Y0179384D01*
X0229172Y0179384D01*
X0229172Y0183584D01*
X0227154Y0183584D01*
X0228454Y0184884D01*
X0233387Y0184884D01*
X0234894Y0185508D01*
X0236047Y0186662D01*
X0236672Y0188169D01*
X0236672Y0189800D01*
X0236047Y0191307D01*
X0235071Y0192283D01*
X0239514Y0192283D01*
X0238895Y0192027D01*
X0237742Y0190874D01*
X0237117Y0189367D01*
X0237117Y0187736D01*
X0237742Y0186229D01*
X0238895Y0185075D01*
X0240402Y0184451D01*
X0248033Y0184451D01*
X0249540Y0185075D01*
X0250693Y0186229D01*
X0251317Y0187736D01*
X0251317Y0189367D01*
X0250693Y0190874D01*
X0249540Y0192027D01*
X0248921Y0192283D01*
X0255695Y0192283D01*
X0255076Y0192027D01*
X0253923Y0190874D01*
X0253298Y0189367D01*
X0253298Y0187736D01*
X0253923Y0186229D01*
X0255076Y0185075D01*
X0256583Y0184451D01*
X0264214Y0184451D01*
X0265721Y0185075D01*
X0266874Y0186229D01*
X0267094Y0186759D01*
X0267094Y0186021D01*
X0269794Y0183321D01*
X0270731Y0182383D01*
X0271028Y0182383D01*
X0270583Y0182060D01*
X0270071Y0181548D01*
X0269645Y0180962D01*
X0269317Y0180317D01*
X0269093Y0179628D01*
X0268986Y0178951D01*
X0276179Y0178951D01*
X0276179Y0178151D01*
X0268986Y0178151D01*
X0269093Y0177474D01*
X0269317Y0176785D01*
X0269645Y0176140D01*
X0270071Y0175554D01*
X0270583Y0175042D01*
X0271169Y0174617D01*
X0271814Y0174288D01*
X0272502Y0174064D01*
X0273217Y0173951D01*
X0276180Y0173951D01*
X0276180Y0178151D01*
X0276980Y0178151D01*
X0276980Y0178951D01*
X0284173Y0178951D01*
X0284066Y0179628D01*
X0283843Y0180317D01*
X0283514Y0180962D01*
X0283088Y0181548D01*
X0282576Y0182060D01*
X0282030Y0182457D01*
X0284656Y0185083D01*
X0285594Y0186021D01*
X0285594Y0190946D01*
X0273343Y0203197D01*
X0297956Y0203197D01*
X0297378Y0202619D01*
X0296476Y0200440D01*
X0296476Y0198080D01*
X0297378Y0195900D01*
X0299047Y0194232D01*
X0301227Y0193329D01*
X0303586Y0193329D01*
X0305766Y0194232D01*
X0306343Y0194810D01*
X0306343Y0175638D01*
X0310280Y0175638D01*
X0310280Y0022608D01*
X0309703Y0023185D01*
X0307523Y0024088D01*
X0305164Y0024088D01*
X0302984Y0023185D01*
X0301315Y0021517D01*
X0300413Y0019337D01*
X0300413Y0016978D01*
X0301315Y0014798D01*
X0301893Y0014220D01*
X0289255Y0014220D01*
X0289908Y0014491D01*
X0291209Y0015792D01*
X0291913Y0017492D01*
X0291913Y0026382D01*
X0291209Y0028082D01*
X0289908Y0029383D01*
X0288208Y0030087D01*
X0286368Y0030087D01*
X0284668Y0029383D01*
X0283367Y0028082D01*
X0282663Y0026382D01*
X0282663Y0017492D01*
X0283367Y0015792D01*
X0284668Y0014491D01*
X0285322Y0014220D01*
X0269570Y0014220D01*
X0270223Y0014491D01*
X0271524Y0015792D01*
X0272228Y0017492D01*
X0272228Y0026382D01*
X0271524Y0028082D01*
X0270223Y0029383D01*
X0268523Y0030087D01*
X0266683Y0030087D01*
X0264983Y0029383D01*
X0263682Y0028082D01*
X0262978Y0026382D01*
X0262978Y0017492D01*
X0263682Y0015792D01*
X0264983Y0014491D01*
X0265637Y0014220D01*
X0183585Y0014220D01*
X0184239Y0014491D01*
X0185540Y0015792D01*
X0186244Y0017492D01*
X0186244Y0024339D01*
X0198245Y0044036D01*
X0198396Y0044187D01*
X0198522Y0044490D01*
X0198692Y0044770D01*
X0198725Y0044982D01*
X0198807Y0045179D01*
X0198807Y0045507D01*
X0198858Y0045832D01*
X0198807Y0046040D01*
X0198807Y0075607D01*
X0204265Y0078574D01*
X0205153Y0078206D01*
X0206904Y0078206D01*
X0208521Y0078876D01*
X0209758Y0080114D01*
X0210428Y0081731D01*
X0210428Y0083482D01*
X0209758Y0085099D01*
X0208521Y0086336D01*
X0206904Y0087006D01*
X0205153Y0087006D01*
X0203536Y0086336D01*
X0202298Y0085099D01*
X0201628Y0083482D01*
X0201628Y0083287D01*
X0194942Y0079653D01*
X0194578Y0079502D01*
X0194474Y0079398D01*
X0194346Y0079328D01*
X0194097Y0079021D01*
X0193818Y0078742D01*
X0193762Y0078607D01*
X0193670Y0078493D01*
X0193558Y0078114D01*
X0193407Y0077750D01*
X0193407Y0077603D01*
X0193366Y0077463D01*
X0193407Y0077070D01*
X0193407Y0063035D01*
X0192829Y0064429D01*
X0191592Y0065667D01*
X0189974Y0066337D01*
X0188224Y0066337D01*
X0186607Y0065667D01*
X0185369Y0064429D01*
X0184699Y0062812D01*
X0184699Y0061062D01*
X0185369Y0059445D01*
X0186607Y0058207D01*
X0188224Y0057537D01*
X0189974Y0057537D01*
X0191592Y0058207D01*
X0192829Y0059445D01*
X0193407Y0060839D01*
X0193407Y0046474D01*
X0183245Y0029795D01*
X0182539Y0030087D01*
X0180699Y0030087D01*
X0178999Y0029383D01*
X0177698Y0028082D01*
X0176994Y0026382D01*
X0176994Y0017492D01*
X0177698Y0015792D01*
X0178999Y0014491D01*
X0179652Y0014220D01*
X0163900Y0014220D01*
X0164554Y0014491D01*
X0165855Y0015792D01*
X0166559Y0017492D01*
X0166559Y0026382D01*
X0166056Y0027595D01*
X0182648Y0044187D01*
X0183059Y0045179D01*
X0183059Y0107590D01*
X0185414Y0109946D01*
X0195475Y0109946D01*
X0195570Y0109906D01*
X0202506Y0109906D01*
X0203536Y0108876D01*
X0205153Y0108206D01*
X0206904Y0108206D01*
X0208521Y0108876D01*
X0209494Y0109849D01*
X0209494Y0105363D01*
X0208521Y0106336D01*
X0206904Y0107006D01*
X0205153Y0107006D01*
X0203536Y0106336D01*
X0202298Y0105099D01*
X0201628Y0103482D01*
X0201628Y0101731D01*
X0202298Y0100114D01*
X0203536Y0098876D01*
X0205153Y0098206D01*
X0206904Y0098206D01*
X0208521Y0098876D01*
X0209494Y0099849D01*
X0209494Y0099621D01*
X0210431Y0098683D01*
X0233157Y0075957D01*
X0232298Y0075099D01*
X0231628Y0073482D01*
X0231628Y0071731D01*
X0232298Y0070114D01*
X0233536Y0068876D01*
X0235153Y0068206D01*
X0236904Y0068206D01*
X0238521Y0068876D01*
X0239758Y0070114D01*
X0240428Y0071731D01*
X0240428Y0073482D01*
X0239758Y0075099D01*
X0238521Y0076336D01*
X0236904Y0077006D01*
X0236634Y0077006D01*
X0235434Y0078206D01*
X0236904Y0078206D01*
X0238521Y0078876D01*
X0239758Y0080114D01*
X0240428Y0081731D01*
X0240428Y0083482D01*
X0239758Y0085099D01*
X0238521Y0086336D01*
X0236904Y0087006D01*
X0235153Y0087006D01*
X0233536Y0086336D01*
X0232298Y0085099D01*
X0231628Y0083482D01*
X0231628Y0082012D01*
X0212694Y0100946D01*
X0212694Y0125246D01*
X0209994Y0127946D01*
X0209734Y0128206D01*
X0209784Y0128206D01*
X0210428Y0128851D01*
X0210428Y0136362D01*
X0210307Y0136483D01*
X0213131Y0136483D01*
X0228431Y0121183D01*
X0231855Y0121183D01*
X0232298Y0120114D01*
X0233536Y0118876D01*
X0235153Y0118206D01*
X0236904Y0118206D01*
X0238521Y0118876D01*
X0239758Y0120114D01*
X0240428Y0121731D01*
X0240428Y0123482D01*
X0239758Y0125099D01*
X0238521Y0126336D01*
X0236904Y0127006D01*
X0235153Y0127006D01*
X0233536Y0126336D01*
X0232298Y0125099D01*
X0232002Y0124383D01*
X0229756Y0124383D01*
X0215394Y0138746D01*
X0214456Y0139683D01*
X0147431Y0139683D01*
X0137531Y0129783D01*
X0072256Y0129783D01*
X0069054Y0132986D01*
X0069529Y0134132D01*
X0069529Y0136041D01*
X0068798Y0137806D01*
X0067448Y0139156D01*
X0065684Y0139887D01*
X0063774Y0139887D01*
X0062010Y0139156D01*
X0060660Y0137806D01*
X0059929Y0136041D01*
X0059929Y0134132D01*
X0060660Y0132368D01*
X0062010Y0131017D01*
X0063774Y0130287D01*
X0065684Y0130287D01*
X0066776Y0130739D01*
X0069531Y0127983D01*
X0064156Y0127983D01*
X0059084Y0133056D01*
X0059529Y0134132D01*
X0059529Y0136041D01*
X0058798Y0137806D01*
X0057448Y0139156D01*
X0055684Y0139887D01*
X0053774Y0139887D01*
X0052010Y0139156D01*
X0050660Y0137806D01*
X0049929Y0136041D01*
X0049929Y0134132D01*
X0050660Y0132368D01*
X0051444Y0131583D01*
X0050656Y0131583D01*
X0049113Y0133127D01*
X0049529Y0134132D01*
X0049529Y0136041D01*
X0048798Y0137806D01*
X0047448Y0139156D01*
X0045684Y0139887D01*
X0043774Y0139887D01*
X0042010Y0139156D01*
X0040660Y0137806D01*
X0039929Y0136041D01*
X0039929Y0134132D01*
X0040660Y0132368D01*
X0042010Y0131017D01*
X0043774Y0130287D01*
X0045684Y0130287D01*
X0046917Y0130797D01*
X0049331Y0128383D01*
X0056531Y0128383D01*
X0057231Y0127683D01*
X0055213Y0127683D01*
X0052723Y0125193D01*
X0052723Y0121673D01*
X0055213Y0119183D01*
X0055048Y0119348D02*
X0033192Y0119348D01*
X0031993Y0120547D02*
X0053849Y0120547D01*
X0052723Y0121745D02*
X0030795Y0121745D01*
X0029596Y0122944D02*
X0052723Y0122944D01*
X0052723Y0124142D02*
X0028398Y0124142D01*
X0027199Y0125341D02*
X0052870Y0125341D01*
X0054069Y0126539D02*
X0026001Y0126539D01*
X0024802Y0127738D02*
X0057177Y0127738D01*
X0060807Y0131333D02*
X0061694Y0131333D01*
X0062005Y0130135D02*
X0067380Y0130135D01*
X0068578Y0128936D02*
X0063204Y0128936D01*
X0060592Y0132532D02*
X0059608Y0132532D01*
X0059363Y0133730D02*
X0060096Y0133730D01*
X0059929Y0134929D02*
X0059529Y0134929D01*
X0059494Y0136127D02*
X0059965Y0136127D01*
X0060461Y0137326D02*
X0058997Y0137326D01*
X0058080Y0138524D02*
X0061378Y0138524D01*
X0063379Y0139723D02*
X0056080Y0139723D01*
X0053379Y0139723D02*
X0046080Y0139723D01*
X0048080Y0138524D02*
X0051378Y0138524D01*
X0050461Y0137326D02*
X0048997Y0137326D01*
X0049494Y0136127D02*
X0049965Y0136127D01*
X0049929Y0134929D02*
X0049529Y0134929D01*
X0049363Y0133730D02*
X0050096Y0133730D01*
X0049708Y0132532D02*
X0050592Y0132532D01*
X0047580Y0130135D02*
X0022405Y0130135D01*
X0023604Y0128936D02*
X0048778Y0128936D01*
X0041694Y0131333D02*
X0037764Y0131333D01*
X0037448Y0131017D02*
X0038798Y0132368D01*
X0039529Y0134132D01*
X0039529Y0136041D01*
X0038798Y0137806D01*
X0037448Y0139156D01*
X0035684Y0139887D01*
X0033774Y0139887D01*
X0032010Y0139156D01*
X0030660Y0137806D01*
X0029929Y0136041D01*
X0029929Y0134132D01*
X0030660Y0132368D01*
X0032010Y0131017D01*
X0033774Y0130287D01*
X0035684Y0130287D01*
X0037448Y0131017D01*
X0038866Y0132532D02*
X0040592Y0132532D01*
X0040096Y0133730D02*
X0039363Y0133730D01*
X0039529Y0134929D02*
X0039929Y0134929D01*
X0039965Y0136127D02*
X0039494Y0136127D01*
X0038997Y0137326D02*
X0040461Y0137326D01*
X0041378Y0138524D02*
X0038080Y0138524D01*
X0036080Y0139723D02*
X0043379Y0139723D01*
X0033379Y0139723D02*
X0029049Y0139723D01*
X0029529Y0138524D02*
X0031378Y0138524D01*
X0030461Y0137326D02*
X0029529Y0137326D01*
X0029529Y0136127D02*
X0029965Y0136127D01*
X0029929Y0134929D02*
X0029529Y0134929D01*
X0029529Y0133730D02*
X0030096Y0133730D01*
X0030592Y0132532D02*
X0029529Y0132532D01*
X0029529Y0131333D02*
X0031694Y0131333D01*
X0058899Y0119348D02*
X0138636Y0119348D01*
X0138752Y0119464D02*
X0138108Y0118819D01*
X0138108Y0114346D01*
X0138752Y0113702D01*
X0143226Y0113702D01*
X0143870Y0114346D01*
X0143870Y0114683D01*
X0165667Y0114683D01*
X0165667Y0114346D01*
X0166311Y0113702D01*
X0170785Y0113702D01*
X0171429Y0114346D01*
X0171429Y0118819D01*
X0170785Y0119464D01*
X0166311Y0119464D01*
X0165667Y0118819D01*
X0165667Y0118483D01*
X0143870Y0118483D01*
X0143870Y0118819D01*
X0143226Y0119464D01*
X0138752Y0119464D01*
X0138108Y0118149D02*
X0058974Y0118149D01*
X0060173Y0116951D02*
X0070489Y0116951D01*
X0070710Y0116951D02*
X0071110Y0116951D01*
X0071332Y0116951D02*
X0138108Y0116951D01*
X0138108Y0115752D02*
X0133156Y0115752D01*
X0133006Y0115902D02*
X0131646Y0116465D01*
X0130174Y0116465D01*
X0128814Y0115902D01*
X0127774Y0114861D01*
X0127210Y0113501D01*
X0127210Y0106829D01*
X0127774Y0105469D01*
X0128814Y0104429D01*
X0130174Y0103865D01*
X0131646Y0103865D01*
X0133006Y0104429D01*
X0134047Y0105469D01*
X0134610Y0106829D01*
X0134610Y0113501D01*
X0134047Y0114861D01*
X0133006Y0115902D01*
X0134174Y0114554D02*
X0138108Y0114554D01*
X0143870Y0114554D02*
X0165667Y0114554D01*
X0171429Y0114554D02*
X0182386Y0114554D01*
X0181187Y0113355D02*
X0134610Y0113355D01*
X0134610Y0112157D02*
X0179989Y0112157D01*
X0178790Y0110958D02*
X0134610Y0110958D01*
X0134610Y0109760D02*
X0177872Y0109760D01*
X0177659Y0108561D02*
X0134610Y0108561D01*
X0134610Y0107363D02*
X0177659Y0107363D01*
X0177659Y0106164D02*
X0134335Y0106164D01*
X0133543Y0104966D02*
X0177659Y0104966D01*
X0183059Y0104966D02*
X0202243Y0104966D01*
X0201747Y0103767D02*
X0183059Y0103767D01*
X0183059Y0102569D02*
X0201628Y0102569D01*
X0201778Y0101370D02*
X0183059Y0101370D01*
X0183059Y0100172D02*
X0202274Y0100172D01*
X0203439Y0098973D02*
X0183059Y0098973D01*
X0183059Y0097775D02*
X0211340Y0097775D01*
X0212538Y0096576D02*
X0207942Y0096576D01*
X0208521Y0096336D02*
X0206904Y0097006D01*
X0205153Y0097006D01*
X0203536Y0096336D01*
X0202298Y0095099D01*
X0201628Y0093482D01*
X0201628Y0091731D01*
X0202298Y0090114D01*
X0203536Y0088876D01*
X0205153Y0088206D01*
X0206904Y0088206D01*
X0208521Y0088876D01*
X0209758Y0090114D01*
X0210428Y0091731D01*
X0210428Y0093482D01*
X0209758Y0095099D01*
X0208521Y0096336D01*
X0209479Y0095378D02*
X0213737Y0095378D01*
X0214935Y0094179D02*
X0210139Y0094179D01*
X0210428Y0092981D02*
X0216134Y0092981D01*
X0217332Y0091782D02*
X0210428Y0091782D01*
X0209953Y0090584D02*
X0218531Y0090584D01*
X0219729Y0089385D02*
X0209030Y0089385D01*
X0206947Y0086988D02*
X0222126Y0086988D01*
X0220928Y0088187D02*
X0183059Y0088187D01*
X0183059Y0089385D02*
X0203027Y0089385D01*
X0202104Y0090584D02*
X0183059Y0090584D01*
X0183059Y0091782D02*
X0201628Y0091782D01*
X0201628Y0092981D02*
X0183059Y0092981D01*
X0183059Y0094179D02*
X0201917Y0094179D01*
X0202577Y0095378D02*
X0183059Y0095378D01*
X0183059Y0096576D02*
X0204115Y0096576D01*
X0208618Y0098973D02*
X0210141Y0098973D01*
X0212694Y0101370D02*
X0231778Y0101370D01*
X0231628Y0101731D02*
X0231628Y0103482D01*
X0232298Y0105099D01*
X0233536Y0106336D01*
X0235153Y0107006D01*
X0236904Y0107006D01*
X0238521Y0106336D01*
X0239758Y0105099D01*
X0240428Y0103482D01*
X0240428Y0101731D01*
X0239758Y0100114D01*
X0238521Y0098876D01*
X0236904Y0098206D01*
X0235153Y0098206D01*
X0233536Y0098876D01*
X0232298Y0100114D01*
X0231628Y0101731D01*
X0231628Y0102569D02*
X0212694Y0102569D01*
X0212694Y0103767D02*
X0231747Y0103767D01*
X0232243Y0104966D02*
X0212694Y0104966D01*
X0212694Y0106164D02*
X0233364Y0106164D01*
X0234296Y0108561D02*
X0212694Y0108561D01*
X0212694Y0107363D02*
X0310280Y0107363D01*
X0310280Y0108561D02*
X0237761Y0108561D01*
X0238521Y0108876D02*
X0236904Y0108206D01*
X0235153Y0108206D01*
X0233536Y0108876D01*
X0232298Y0110114D01*
X0231628Y0111731D01*
X0231628Y0113482D01*
X0232298Y0115099D01*
X0233536Y0116336D01*
X0235153Y0117006D01*
X0236904Y0117006D01*
X0238521Y0116336D01*
X0239758Y0115099D01*
X0240428Y0113482D01*
X0240428Y0111731D01*
X0239758Y0110114D01*
X0238521Y0108876D01*
X0239404Y0109760D02*
X0310280Y0109760D01*
X0310280Y0110958D02*
X0240108Y0110958D01*
X0240428Y0112157D02*
X0310280Y0112157D01*
X0310280Y0113355D02*
X0240428Y0113355D01*
X0239984Y0114554D02*
X0310280Y0114554D01*
X0310280Y0115752D02*
X0239105Y0115752D01*
X0237037Y0116951D02*
X0310280Y0116951D01*
X0310280Y0118149D02*
X0212694Y0118149D01*
X0212694Y0116951D02*
X0235020Y0116951D01*
X0232952Y0115752D02*
X0212694Y0115752D01*
X0212694Y0114554D02*
X0232073Y0114554D01*
X0231628Y0113355D02*
X0212694Y0113355D01*
X0212694Y0112157D02*
X0231628Y0112157D01*
X0231948Y0110958D02*
X0212694Y0110958D01*
X0212694Y0109760D02*
X0232652Y0109760D01*
X0238693Y0106164D02*
X0310280Y0106164D01*
X0310280Y0104966D02*
X0239814Y0104966D01*
X0240310Y0103767D02*
X0310280Y0103767D01*
X0310280Y0102569D02*
X0240428Y0102569D01*
X0240279Y0101370D02*
X0310280Y0101370D01*
X0310280Y0100172D02*
X0239782Y0100172D01*
X0238618Y0098973D02*
X0310280Y0098973D01*
X0310280Y0097775D02*
X0215865Y0097775D01*
X0214667Y0098973D02*
X0233439Y0098973D01*
X0232274Y0100172D02*
X0213468Y0100172D01*
X0217064Y0096576D02*
X0234115Y0096576D01*
X0233536Y0096336D02*
X0232298Y0095099D01*
X0231628Y0093482D01*
X0231628Y0091731D01*
X0232298Y0090114D01*
X0233536Y0088876D01*
X0235153Y0088206D01*
X0236904Y0088206D01*
X0238521Y0088876D01*
X0239758Y0090114D01*
X0240428Y0091731D01*
X0240428Y0093482D01*
X0239758Y0095099D01*
X0238521Y0096336D01*
X0236904Y0097006D01*
X0235153Y0097006D01*
X0233536Y0096336D01*
X0232577Y0095378D02*
X0218262Y0095378D01*
X0219461Y0094179D02*
X0231917Y0094179D01*
X0231628Y0092981D02*
X0220659Y0092981D01*
X0221858Y0091782D02*
X0231628Y0091782D01*
X0232104Y0090584D02*
X0223056Y0090584D01*
X0224255Y0089385D02*
X0233027Y0089385D01*
X0235109Y0086988D02*
X0226652Y0086988D01*
X0227850Y0085790D02*
X0232989Y0085790D01*
X0232088Y0084591D02*
X0229049Y0084591D01*
X0230247Y0083393D02*
X0231628Y0083393D01*
X0231628Y0082194D02*
X0231446Y0082194D01*
X0229317Y0079797D02*
X0209442Y0079797D01*
X0210124Y0080996D02*
X0228119Y0080996D01*
X0226920Y0082194D02*
X0210428Y0082194D01*
X0210428Y0083393D02*
X0225722Y0083393D01*
X0224523Y0084591D02*
X0209969Y0084591D01*
X0209067Y0085790D02*
X0223325Y0085790D01*
X0225453Y0088187D02*
X0310280Y0088187D01*
X0310280Y0089385D02*
X0239030Y0089385D01*
X0239953Y0090584D02*
X0310280Y0090584D01*
X0310280Y0091782D02*
X0240428Y0091782D01*
X0240428Y0092981D02*
X0310280Y0092981D01*
X0310280Y0094179D02*
X0240139Y0094179D01*
X0239479Y0095378D02*
X0310280Y0095378D01*
X0310280Y0096576D02*
X0237942Y0096576D01*
X0236947Y0086988D02*
X0310280Y0086988D01*
X0310280Y0085790D02*
X0239067Y0085790D01*
X0239969Y0084591D02*
X0310280Y0084591D01*
X0310280Y0083393D02*
X0240428Y0083393D01*
X0240428Y0082194D02*
X0310280Y0082194D01*
X0310280Y0080996D02*
X0240124Y0080996D01*
X0239442Y0079797D02*
X0310280Y0079797D01*
X0310280Y0078599D02*
X0237851Y0078599D01*
X0236240Y0077400D02*
X0310280Y0077400D01*
X0310280Y0076202D02*
X0238656Y0076202D01*
X0239798Y0075003D02*
X0310280Y0075003D01*
X0310280Y0073805D02*
X0240295Y0073805D01*
X0240428Y0072606D02*
X0310280Y0072606D01*
X0310280Y0071408D02*
X0240294Y0071408D01*
X0239798Y0070209D02*
X0310280Y0070209D01*
X0310280Y0069011D02*
X0238655Y0069011D01*
X0236904Y0067006D02*
X0235153Y0067006D01*
X0233536Y0066336D01*
X0232298Y0065099D01*
X0231628Y0063482D01*
X0231628Y0061731D01*
X0232298Y0060114D01*
X0233536Y0058876D01*
X0235153Y0058206D01*
X0236904Y0058206D01*
X0238521Y0058876D01*
X0239758Y0060114D01*
X0240428Y0061731D01*
X0240428Y0063482D01*
X0239758Y0065099D01*
X0238521Y0066336D01*
X0236904Y0067006D01*
X0237852Y0066613D02*
X0310280Y0066613D01*
X0310280Y0065415D02*
X0239442Y0065415D01*
X0240124Y0064216D02*
X0310280Y0064216D01*
X0310280Y0063018D02*
X0240428Y0063018D01*
X0240428Y0061819D02*
X0310280Y0061819D01*
X0310280Y0060621D02*
X0239968Y0060621D01*
X0239067Y0059422D02*
X0310280Y0059422D01*
X0310280Y0058224D02*
X0236946Y0058224D01*
X0235111Y0058224D02*
X0206946Y0058224D01*
X0206904Y0058206D02*
X0208521Y0058876D01*
X0209758Y0060114D01*
X0210428Y0061731D01*
X0210428Y0063482D01*
X0209758Y0065099D01*
X0208521Y0066336D01*
X0206904Y0067006D01*
X0205153Y0067006D01*
X0203536Y0066336D01*
X0202298Y0065099D01*
X0201628Y0063482D01*
X0201628Y0061731D01*
X0202298Y0060114D01*
X0203536Y0058876D01*
X0205153Y0058206D01*
X0206904Y0058206D01*
X0205111Y0058224D02*
X0198807Y0058224D01*
X0198807Y0059422D02*
X0202990Y0059422D01*
X0202088Y0060621D02*
X0198807Y0060621D01*
X0198807Y0061819D02*
X0201628Y0061819D01*
X0201628Y0063018D02*
X0198807Y0063018D01*
X0198807Y0064216D02*
X0201933Y0064216D01*
X0202614Y0065415D02*
X0198807Y0065415D01*
X0198807Y0066613D02*
X0204205Y0066613D01*
X0205153Y0068206D02*
X0206904Y0068206D01*
X0208521Y0068876D01*
X0209758Y0070114D01*
X0210428Y0071731D01*
X0210428Y0073482D01*
X0209758Y0075099D01*
X0208521Y0076336D01*
X0206904Y0077006D01*
X0205153Y0077006D01*
X0203536Y0076336D01*
X0202298Y0075099D01*
X0201628Y0073482D01*
X0201628Y0071731D01*
X0202298Y0070114D01*
X0203536Y0068876D01*
X0205153Y0068206D01*
X0203402Y0069011D02*
X0198807Y0069011D01*
X0198807Y0070209D02*
X0202259Y0070209D01*
X0201762Y0071408D02*
X0198807Y0071408D01*
X0198807Y0072606D02*
X0201628Y0072606D01*
X0201762Y0073805D02*
X0198807Y0073805D01*
X0198807Y0075003D02*
X0202259Y0075003D01*
X0203401Y0076202D02*
X0199900Y0076202D01*
X0202105Y0077400D02*
X0231714Y0077400D01*
X0230516Y0078599D02*
X0207851Y0078599D01*
X0208656Y0076202D02*
X0232913Y0076202D01*
X0232259Y0075003D02*
X0209798Y0075003D01*
X0210295Y0073805D02*
X0231762Y0073805D01*
X0231628Y0072606D02*
X0210428Y0072606D01*
X0210294Y0071408D02*
X0231762Y0071408D01*
X0232259Y0070209D02*
X0209798Y0070209D01*
X0208655Y0069011D02*
X0233402Y0069011D01*
X0234205Y0066613D02*
X0207852Y0066613D01*
X0209442Y0065415D02*
X0232614Y0065415D01*
X0231933Y0064216D02*
X0210124Y0064216D01*
X0210428Y0063018D02*
X0231628Y0063018D01*
X0231628Y0061819D02*
X0210428Y0061819D01*
X0209968Y0060621D02*
X0232088Y0060621D01*
X0232990Y0059422D02*
X0209067Y0059422D01*
X0213234Y0052317D02*
X0210452Y0049534D01*
X0210452Y0047767D01*
X0215001Y0047767D01*
X0215001Y0047367D01*
X0210452Y0047367D01*
X0210452Y0045599D01*
X0213234Y0042817D01*
X0215002Y0042817D01*
X0215002Y0047367D01*
X0215402Y0047367D01*
X0215402Y0047767D01*
X0219952Y0047767D01*
X0219952Y0049534D01*
X0217169Y0052317D01*
X0215402Y0052317D01*
X0215402Y0047767D01*
X0215002Y0047767D01*
X0215002Y0052317D01*
X0213234Y0052317D01*
X0213148Y0052231D02*
X0198807Y0052231D01*
X0198807Y0051033D02*
X0202657Y0051033D01*
X0203441Y0051817D02*
X0200952Y0049327D01*
X0200952Y0045807D01*
X0203441Y0043317D01*
X0206962Y0043317D01*
X0209452Y0045807D01*
X0209452Y0049327D01*
X0206962Y0051817D01*
X0203441Y0051817D01*
X0201459Y0049834D02*
X0198807Y0049834D01*
X0198807Y0048636D02*
X0200952Y0048636D01*
X0200952Y0047437D02*
X0198807Y0047437D01*
X0198807Y0046239D02*
X0200952Y0046239D01*
X0201718Y0045040D02*
X0198749Y0045040D01*
X0198127Y0043842D02*
X0202916Y0043842D01*
X0197396Y0042643D02*
X0310280Y0042643D01*
X0310280Y0041445D02*
X0196666Y0041445D01*
X0195936Y0040246D02*
X0310280Y0040246D01*
X0310280Y0039048D02*
X0195206Y0039048D01*
X0194475Y0037849D02*
X0310280Y0037849D01*
X0310280Y0036651D02*
X0193745Y0036651D01*
X0193015Y0035452D02*
X0310280Y0035452D01*
X0310280Y0034254D02*
X0192285Y0034254D01*
X0191555Y0033055D02*
X0310280Y0033055D01*
X0310280Y0031857D02*
X0190824Y0031857D01*
X0190094Y0030658D02*
X0201460Y0030658D01*
X0201519Y0030717D02*
X0200375Y0029572D01*
X0199755Y0028077D01*
X0199755Y0020521D01*
X0200375Y0019026D01*
X0201519Y0017882D01*
X0203014Y0017262D01*
X0204633Y0017262D01*
X0206128Y0017882D01*
X0207273Y0019026D01*
X0207892Y0020521D01*
X0207892Y0028077D01*
X0207273Y0029572D01*
X0206128Y0030717D01*
X0204633Y0031336D01*
X0203014Y0031336D01*
X0201519Y0030717D01*
X0200328Y0029460D02*
X0189364Y0029460D01*
X0188634Y0028261D02*
X0199831Y0028261D01*
X0199755Y0027063D02*
X0187903Y0027063D01*
X0187173Y0025864D02*
X0199755Y0025864D01*
X0199755Y0024666D02*
X0186443Y0024666D01*
X0186244Y0023467D02*
X0199755Y0023467D01*
X0199755Y0022269D02*
X0186244Y0022269D01*
X0186244Y0021070D02*
X0199755Y0021070D01*
X0200024Y0019872D02*
X0186244Y0019872D01*
X0186244Y0018673D02*
X0200728Y0018673D01*
X0202502Y0017475D02*
X0186237Y0017475D01*
X0185740Y0016276D02*
X0263482Y0016276D01*
X0262985Y0017475D02*
X0245145Y0017475D01*
X0244633Y0017262D02*
X0246128Y0017882D01*
X0247273Y0019026D01*
X0247892Y0020521D01*
X0247892Y0028077D01*
X0247273Y0029572D01*
X0246128Y0030717D01*
X0244633Y0031336D01*
X0243014Y0031336D01*
X0241519Y0030717D01*
X0240375Y0029572D01*
X0239755Y0028077D01*
X0239755Y0020521D01*
X0240375Y0019026D01*
X0241519Y0017882D01*
X0243014Y0017262D01*
X0244633Y0017262D01*
X0242502Y0017475D02*
X0235145Y0017475D01*
X0234633Y0017262D02*
X0236128Y0017882D01*
X0237273Y0019026D01*
X0237892Y0020521D01*
X0237892Y0028077D01*
X0237273Y0029572D01*
X0236128Y0030717D01*
X0234633Y0031336D01*
X0233014Y0031336D01*
X0231519Y0030717D01*
X0230375Y0029572D01*
X0229755Y0028077D01*
X0229755Y0020521D01*
X0230375Y0019026D01*
X0231519Y0017882D01*
X0233014Y0017262D01*
X0234633Y0017262D01*
X0232502Y0017475D02*
X0226288Y0017475D01*
X0226218Y0017423D02*
X0226800Y0017846D01*
X0227308Y0018355D01*
X0227731Y0018936D01*
X0228057Y0019577D01*
X0228280Y0020261D01*
X0228392Y0020971D01*
X0228392Y0023915D01*
X0224208Y0023915D01*
X0224208Y0024683D01*
X0228392Y0024683D01*
X0228392Y0027627D01*
X0228280Y0028338D01*
X0228057Y0029021D01*
X0227731Y0029662D01*
X0227308Y0030244D01*
X0226800Y0030752D01*
X0226218Y0031175D01*
X0225577Y0031502D01*
X0224893Y0031724D01*
X0224208Y0031832D01*
X0224208Y0024684D01*
X0223439Y0024684D01*
X0223439Y0031832D01*
X0222754Y0031724D01*
X0222070Y0031502D01*
X0221429Y0031175D01*
X0220847Y0030752D01*
X0220339Y0030244D01*
X0219916Y0029662D01*
X0219590Y0029021D01*
X0219368Y0028338D01*
X0219255Y0027627D01*
X0219255Y0024683D01*
X0223439Y0024683D01*
X0223439Y0023915D01*
X0219255Y0023915D01*
X0219255Y0020971D01*
X0219368Y0020261D01*
X0219590Y0019577D01*
X0219916Y0018936D01*
X0220339Y0018355D01*
X0220847Y0017846D01*
X0221429Y0017423D01*
X0222070Y0017097D01*
X0222754Y0016875D01*
X0223439Y0016766D01*
X0223439Y0023915D01*
X0224208Y0023915D01*
X0224208Y0016766D01*
X0224893Y0016875D01*
X0225577Y0017097D01*
X0226218Y0017423D01*
X0227540Y0018673D02*
X0230728Y0018673D01*
X0230024Y0019872D02*
X0228153Y0019872D01*
X0228392Y0021070D02*
X0229755Y0021070D01*
X0229755Y0022269D02*
X0228392Y0022269D01*
X0228392Y0023467D02*
X0229755Y0023467D01*
X0229755Y0024666D02*
X0224208Y0024666D01*
X0223439Y0024666D02*
X0217892Y0024666D01*
X0217892Y0025864D02*
X0219255Y0025864D01*
X0219255Y0027063D02*
X0217892Y0027063D01*
X0217892Y0028077D02*
X0217273Y0029572D01*
X0216128Y0030717D01*
X0214633Y0031336D01*
X0213014Y0031336D01*
X0211519Y0030717D01*
X0210375Y0029572D01*
X0209755Y0028077D01*
X0209755Y0020521D01*
X0210375Y0019026D01*
X0211519Y0017882D01*
X0213014Y0017262D01*
X0214633Y0017262D01*
X0216128Y0017882D01*
X0217273Y0019026D01*
X0217892Y0020521D01*
X0217892Y0028077D01*
X0217816Y0028261D02*
X0219356Y0028261D01*
X0219813Y0029460D02*
X0217319Y0029460D01*
X0216187Y0030658D02*
X0220753Y0030658D01*
X0223439Y0030658D02*
X0224208Y0030658D01*
X0224208Y0029460D02*
X0223439Y0029460D01*
X0223439Y0028261D02*
X0224208Y0028261D01*
X0224208Y0027063D02*
X0223439Y0027063D01*
X0223439Y0025864D02*
X0224208Y0025864D01*
X0224208Y0023467D02*
X0223439Y0023467D01*
X0223439Y0022269D02*
X0224208Y0022269D01*
X0224208Y0021070D02*
X0223439Y0021070D01*
X0223439Y0019872D02*
X0224208Y0019872D01*
X0224208Y0018673D02*
X0223439Y0018673D01*
X0223439Y0017475D02*
X0224208Y0017475D01*
X0221359Y0017475D02*
X0215145Y0017475D01*
X0216920Y0018673D02*
X0220108Y0018673D01*
X0219494Y0019872D02*
X0217623Y0019872D01*
X0217892Y0021070D02*
X0219255Y0021070D01*
X0219255Y0022269D02*
X0217892Y0022269D01*
X0217892Y0023467D02*
X0219255Y0023467D01*
X0228392Y0025864D02*
X0229755Y0025864D01*
X0229755Y0027063D02*
X0228392Y0027063D01*
X0228292Y0028261D02*
X0229831Y0028261D01*
X0230328Y0029460D02*
X0227834Y0029460D01*
X0226894Y0030658D02*
X0231460Y0030658D01*
X0236187Y0030658D02*
X0241460Y0030658D01*
X0240328Y0029460D02*
X0237319Y0029460D01*
X0237816Y0028261D02*
X0239831Y0028261D01*
X0239755Y0027063D02*
X0237892Y0027063D01*
X0237892Y0025864D02*
X0239755Y0025864D01*
X0239755Y0024666D02*
X0237892Y0024666D01*
X0237892Y0023467D02*
X0239755Y0023467D01*
X0239755Y0022269D02*
X0237892Y0022269D01*
X0237892Y0021070D02*
X0239755Y0021070D01*
X0240024Y0019872D02*
X0237623Y0019872D01*
X0236920Y0018673D02*
X0240728Y0018673D01*
X0246920Y0018673D02*
X0262978Y0018673D01*
X0262978Y0019872D02*
X0247623Y0019872D01*
X0247892Y0021070D02*
X0262978Y0021070D01*
X0262978Y0022269D02*
X0247892Y0022269D01*
X0247892Y0023467D02*
X0262978Y0023467D01*
X0262978Y0024666D02*
X0247892Y0024666D01*
X0247892Y0025864D02*
X0262978Y0025864D01*
X0263260Y0027063D02*
X0247892Y0027063D01*
X0247816Y0028261D02*
X0263862Y0028261D01*
X0265169Y0029460D02*
X0247319Y0029460D01*
X0246187Y0030658D02*
X0310280Y0030658D01*
X0310280Y0029460D02*
X0289723Y0029460D01*
X0291030Y0028261D02*
X0310280Y0028261D01*
X0310280Y0027063D02*
X0291631Y0027063D01*
X0291913Y0025864D02*
X0310280Y0025864D01*
X0310280Y0024666D02*
X0291913Y0024666D01*
X0291913Y0023467D02*
X0303664Y0023467D01*
X0302067Y0022269D02*
X0291913Y0022269D01*
X0291913Y0021070D02*
X0301130Y0021070D01*
X0300634Y0019872D02*
X0291913Y0019872D01*
X0291913Y0018673D02*
X0300413Y0018673D01*
X0300413Y0017475D02*
X0291906Y0017475D01*
X0291409Y0016276D02*
X0300703Y0016276D01*
X0301200Y0015078D02*
X0290494Y0015078D01*
X0284082Y0015078D02*
X0270809Y0015078D01*
X0271724Y0016276D02*
X0283167Y0016276D01*
X0282670Y0017475D02*
X0272221Y0017475D01*
X0272228Y0018673D02*
X0282663Y0018673D01*
X0282663Y0019872D02*
X0272228Y0019872D01*
X0272228Y0021070D02*
X0282663Y0021070D01*
X0282663Y0022269D02*
X0272228Y0022269D01*
X0272228Y0023467D02*
X0282663Y0023467D01*
X0282663Y0024666D02*
X0272228Y0024666D01*
X0272228Y0025864D02*
X0282663Y0025864D01*
X0282945Y0027063D02*
X0271946Y0027063D01*
X0271345Y0028261D02*
X0283547Y0028261D01*
X0284854Y0029460D02*
X0270038Y0029460D01*
X0264397Y0015078D02*
X0184825Y0015078D01*
X0178413Y0015078D02*
X0165140Y0015078D01*
X0166055Y0016276D02*
X0177498Y0016276D01*
X0177001Y0017475D02*
X0166552Y0017475D01*
X0166559Y0018673D02*
X0176994Y0018673D01*
X0176994Y0019872D02*
X0166559Y0019872D01*
X0166559Y0021070D02*
X0176994Y0021070D01*
X0176994Y0022269D02*
X0166559Y0022269D01*
X0166559Y0023467D02*
X0176994Y0023467D01*
X0176994Y0024666D02*
X0166559Y0024666D01*
X0166559Y0025864D02*
X0176994Y0025864D01*
X0177276Y0027063D02*
X0166277Y0027063D01*
X0166722Y0028261D02*
X0177877Y0028261D01*
X0179184Y0029460D02*
X0167921Y0029460D01*
X0169119Y0030658D02*
X0183771Y0030658D01*
X0184501Y0031857D02*
X0170318Y0031857D01*
X0171516Y0033055D02*
X0185231Y0033055D01*
X0185961Y0034254D02*
X0172715Y0034254D01*
X0173913Y0035452D02*
X0186692Y0035452D01*
X0187422Y0036651D02*
X0175112Y0036651D01*
X0176310Y0037849D02*
X0188152Y0037849D01*
X0188882Y0039048D02*
X0177509Y0039048D01*
X0178707Y0040246D02*
X0189613Y0040246D01*
X0190343Y0041445D02*
X0179906Y0041445D01*
X0181104Y0042643D02*
X0191073Y0042643D01*
X0191803Y0043842D02*
X0182303Y0043842D01*
X0183001Y0045040D02*
X0192533Y0045040D01*
X0193264Y0046239D02*
X0183059Y0046239D01*
X0183059Y0047437D02*
X0193407Y0047437D01*
X0193407Y0048636D02*
X0183059Y0048636D01*
X0183059Y0049834D02*
X0193407Y0049834D01*
X0193407Y0051033D02*
X0183059Y0051033D01*
X0183059Y0052231D02*
X0193407Y0052231D01*
X0193407Y0053430D02*
X0183059Y0053430D01*
X0183059Y0054628D02*
X0193407Y0054628D01*
X0193407Y0055827D02*
X0183059Y0055827D01*
X0183059Y0057025D02*
X0193407Y0057025D01*
X0193407Y0058224D02*
X0191609Y0058224D01*
X0192807Y0059422D02*
X0193407Y0059422D01*
X0193407Y0060621D02*
X0193317Y0060621D01*
X0193407Y0064216D02*
X0192918Y0064216D01*
X0193407Y0065415D02*
X0191844Y0065415D01*
X0193407Y0066613D02*
X0183059Y0066613D01*
X0183059Y0065415D02*
X0186355Y0065415D01*
X0185281Y0064216D02*
X0183059Y0064216D01*
X0183059Y0063018D02*
X0184784Y0063018D01*
X0184699Y0061819D02*
X0183059Y0061819D01*
X0183059Y0060621D02*
X0184882Y0060621D01*
X0185391Y0059422D02*
X0183059Y0059422D01*
X0183059Y0058224D02*
X0186590Y0058224D01*
X0177659Y0058224D02*
X0151609Y0058224D01*
X0151592Y0058207D02*
X0152829Y0059445D01*
X0153499Y0061062D01*
X0153499Y0062812D01*
X0152829Y0064429D01*
X0151592Y0065667D01*
X0149974Y0066337D01*
X0148224Y0066337D01*
X0146607Y0065667D01*
X0145369Y0064429D01*
X0144699Y0062812D01*
X0144699Y0061062D01*
X0145369Y0059445D01*
X0146607Y0058207D01*
X0148224Y0057537D01*
X0149974Y0057537D01*
X0151592Y0058207D01*
X0152807Y0059422D02*
X0177659Y0059422D01*
X0177659Y0060621D02*
X0153317Y0060621D01*
X0153499Y0061819D02*
X0177659Y0061819D01*
X0177659Y0063018D02*
X0153414Y0063018D01*
X0152918Y0064216D02*
X0177659Y0064216D01*
X0177659Y0065415D02*
X0151844Y0065415D01*
X0146355Y0065415D02*
X0102425Y0065415D01*
X0103623Y0064216D02*
X0145281Y0064216D01*
X0144784Y0063018D02*
X0104822Y0063018D01*
X0106020Y0061819D02*
X0144699Y0061819D01*
X0144882Y0060621D02*
X0107219Y0060621D01*
X0108417Y0059422D02*
X0145391Y0059422D01*
X0146590Y0058224D02*
X0109616Y0058224D01*
X0110814Y0057025D02*
X0177659Y0057025D01*
X0177659Y0055827D02*
X0112013Y0055827D01*
X0113212Y0054628D02*
X0177659Y0054628D01*
X0177659Y0053430D02*
X0114410Y0053430D01*
X0115609Y0052231D02*
X0177659Y0052231D01*
X0177659Y0051033D02*
X0116807Y0051033D01*
X0118006Y0049834D02*
X0177659Y0049834D01*
X0177659Y0048636D02*
X0119204Y0048636D01*
X0120403Y0047437D02*
X0177659Y0047437D01*
X0177063Y0046239D02*
X0121601Y0046239D01*
X0122800Y0045040D02*
X0175864Y0045040D01*
X0174666Y0043842D02*
X0123998Y0043842D01*
X0125197Y0042643D02*
X0173467Y0042643D01*
X0172269Y0041445D02*
X0126395Y0041445D01*
X0127594Y0040246D02*
X0171070Y0040246D01*
X0169872Y0039048D02*
X0128792Y0039048D01*
X0129991Y0037849D02*
X0168673Y0037849D01*
X0167475Y0036651D02*
X0131189Y0036651D01*
X0132388Y0035452D02*
X0166276Y0035452D01*
X0165078Y0034254D02*
X0133586Y0034254D01*
X0134785Y0033055D02*
X0163879Y0033055D01*
X0162681Y0031857D02*
X0135983Y0031857D01*
X0137182Y0030658D02*
X0161482Y0030658D01*
X0159499Y0029460D02*
X0142247Y0029460D01*
X0143498Y0028261D02*
X0158192Y0028261D01*
X0157591Y0027063D02*
X0143995Y0027063D01*
X0144113Y0025864D02*
X0157309Y0025864D01*
X0157309Y0024666D02*
X0144113Y0024666D01*
X0144113Y0023467D02*
X0157309Y0023467D01*
X0157309Y0022269D02*
X0144113Y0022269D01*
X0144113Y0021070D02*
X0157309Y0021070D01*
X0157309Y0019872D02*
X0144113Y0019872D01*
X0143885Y0018673D02*
X0157309Y0018673D01*
X0157316Y0017475D02*
X0143241Y0017475D01*
X0141609Y0016276D02*
X0157813Y0016276D01*
X0158728Y0015078D02*
X0016211Y0015078D01*
X0016708Y0016276D02*
X0098479Y0016276D01*
X0097739Y0016582D02*
X0099235Y0015963D01*
X0100853Y0015963D01*
X0102349Y0016582D01*
X0103493Y0017727D01*
X0104113Y0019222D01*
X0104113Y0026778D01*
X0103493Y0028273D01*
X0102349Y0029418D01*
X0100853Y0030037D01*
X0099235Y0030037D01*
X0097739Y0029418D01*
X0096595Y0028273D01*
X0095976Y0026778D01*
X0095976Y0019222D01*
X0096595Y0017727D01*
X0097739Y0016582D01*
X0096847Y0017475D02*
X0016998Y0017475D01*
X0016998Y0018673D02*
X0096203Y0018673D01*
X0095976Y0019872D02*
X0016777Y0019872D01*
X0016281Y0021070D02*
X0095976Y0021070D01*
X0095976Y0022269D02*
X0015344Y0022269D01*
X0013747Y0023467D02*
X0095976Y0023467D01*
X0095976Y0024666D02*
X0007131Y0024666D01*
X0007131Y0025864D02*
X0095976Y0025864D01*
X0096094Y0027063D02*
X0007131Y0027063D01*
X0007131Y0028261D02*
X0096590Y0028261D01*
X0097841Y0029460D02*
X0007131Y0029460D01*
X0007131Y0030658D02*
X0127594Y0030658D01*
X0127594Y0029460D02*
X0123011Y0029460D01*
X0123020Y0029453D02*
X0122439Y0029876D01*
X0121798Y0030202D01*
X0121114Y0030425D01*
X0120428Y0030533D01*
X0120428Y0023384D01*
X0119660Y0023384D01*
X0119660Y0022616D01*
X0115476Y0022616D01*
X0115476Y0019672D01*
X0115588Y0018962D01*
X0115810Y0018278D01*
X0116137Y0017637D01*
X0116559Y0017055D01*
X0117068Y0016547D01*
X0117650Y0016124D01*
X0118290Y0015798D01*
X0118974Y0015575D01*
X0119660Y0015467D01*
X0119660Y0022616D01*
X0120428Y0022616D01*
X0120428Y0015467D01*
X0121114Y0015575D01*
X0121798Y0015798D01*
X0122439Y0016124D01*
X0123020Y0016547D01*
X0123529Y0017055D01*
X0123951Y0017637D01*
X0124278Y0018278D01*
X0124500Y0018962D01*
X0124613Y0019672D01*
X0124613Y0022616D01*
X0120428Y0022616D01*
X0120428Y0023384D01*
X0124613Y0023384D01*
X0124613Y0026328D01*
X0124500Y0027038D01*
X0124278Y0027722D01*
X0123951Y0028363D01*
X0123529Y0028945D01*
X0123020Y0029453D01*
X0124003Y0028261D02*
X0126590Y0028261D01*
X0126094Y0027063D02*
X0124492Y0027063D01*
X0124613Y0025864D02*
X0125976Y0025864D01*
X0125976Y0024666D02*
X0124613Y0024666D01*
X0124613Y0023467D02*
X0125976Y0023467D01*
X0125976Y0022269D02*
X0124613Y0022269D01*
X0124613Y0021070D02*
X0125976Y0021070D01*
X0125976Y0019872D02*
X0124613Y0019872D01*
X0124406Y0018673D02*
X0126203Y0018673D01*
X0126847Y0017475D02*
X0123833Y0017475D01*
X0122648Y0016276D02*
X0128479Y0016276D01*
X0131609Y0016276D02*
X0138479Y0016276D01*
X0136847Y0017475D02*
X0133241Y0017475D01*
X0133885Y0018673D02*
X0136203Y0018673D01*
X0135976Y0019872D02*
X0134113Y0019872D01*
X0134113Y0021070D02*
X0135976Y0021070D01*
X0135976Y0022269D02*
X0134113Y0022269D01*
X0134113Y0023467D02*
X0135976Y0023467D01*
X0135976Y0024666D02*
X0134113Y0024666D01*
X0134113Y0025864D02*
X0135976Y0025864D01*
X0136094Y0027063D02*
X0133995Y0027063D01*
X0133498Y0028261D02*
X0135053Y0028261D01*
X0133855Y0029460D02*
X0132247Y0029460D01*
X0132656Y0030658D02*
X0130794Y0030658D01*
X0130794Y0031857D02*
X0131458Y0031857D01*
X0127594Y0031857D02*
X0049911Y0031857D01*
X0048930Y0030876D02*
X0045410Y0030876D01*
X0042920Y0033366D01*
X0042920Y0036886D01*
X0045410Y0039376D01*
X0048930Y0039376D01*
X0051420Y0036886D01*
X0051420Y0033366D01*
X0048930Y0030876D01*
X0051110Y0033055D02*
X0127559Y0033055D01*
X0126361Y0034254D02*
X0051420Y0034254D01*
X0051420Y0035452D02*
X0125162Y0035452D01*
X0123964Y0036651D02*
X0051420Y0036651D01*
X0050457Y0037849D02*
X0122765Y0037849D01*
X0121567Y0039048D02*
X0049259Y0039048D01*
X0045081Y0039048D02*
X0025640Y0039048D01*
X0025950Y0039797D02*
X0025246Y0038097D01*
X0023945Y0036796D01*
X0022245Y0036092D01*
X0013355Y0036092D01*
X0011655Y0036796D01*
X0010354Y0038097D01*
X0009650Y0039797D01*
X0009650Y0041637D01*
X0010354Y0043336D01*
X0011655Y0044637D01*
X0013355Y0045342D01*
X0022245Y0045342D01*
X0023945Y0044637D01*
X0025246Y0043336D01*
X0025950Y0041637D01*
X0025950Y0039797D01*
X0025950Y0040246D02*
X0120368Y0040246D01*
X0119170Y0041445D02*
X0025950Y0041445D01*
X0025533Y0042643D02*
X0117971Y0042643D01*
X0116773Y0043842D02*
X0111580Y0043842D01*
X0112778Y0045040D02*
X0115574Y0045040D01*
X0114376Y0046239D02*
X0113337Y0046239D01*
X0108787Y0046239D02*
X0108387Y0046239D01*
X0108387Y0047437D02*
X0102837Y0047437D01*
X0102837Y0046239D02*
X0103837Y0046239D01*
X0102837Y0045807D02*
X0100348Y0043317D01*
X0096827Y0043317D01*
X0094337Y0045807D01*
X0094337Y0049327D01*
X0096827Y0051817D01*
X0100348Y0051817D01*
X0102837Y0049327D01*
X0102837Y0045807D01*
X0102071Y0045040D02*
X0104397Y0045040D01*
X0105595Y0043842D02*
X0100873Y0043842D01*
X0096302Y0043842D02*
X0024740Y0043842D01*
X0022972Y0045040D02*
X0095104Y0045040D01*
X0094337Y0046239D02*
X0007131Y0046239D01*
X0007131Y0047437D02*
X0094337Y0047437D01*
X0094337Y0048636D02*
X0007131Y0048636D01*
X0007131Y0049834D02*
X0094844Y0049834D01*
X0096043Y0051033D02*
X0049087Y0051033D01*
X0048930Y0050876D02*
X0051420Y0053366D01*
X0051420Y0056886D01*
X0048930Y0059376D01*
X0045410Y0059376D01*
X0042920Y0056886D01*
X0042920Y0053366D01*
X0045410Y0050876D01*
X0048930Y0050876D01*
X0050286Y0052231D02*
X0106534Y0052231D01*
X0107185Y0053430D02*
X0051420Y0053430D01*
X0051420Y0054628D02*
X0105986Y0054628D01*
X0104788Y0055827D02*
X0051420Y0055827D01*
X0051281Y0057025D02*
X0103589Y0057025D01*
X0102391Y0058224D02*
X0050083Y0058224D01*
X0044258Y0058224D02*
X0025429Y0058224D01*
X0025246Y0057782D02*
X0025950Y0059482D01*
X0025950Y0061322D01*
X0025246Y0063021D01*
X0023945Y0064322D01*
X0022245Y0065027D01*
X0013355Y0065027D01*
X0011655Y0064322D01*
X0010354Y0063021D01*
X0009650Y0061322D01*
X0009650Y0059482D01*
X0010354Y0057782D01*
X0011655Y0056481D01*
X0013355Y0055777D01*
X0022245Y0055777D01*
X0023945Y0056481D01*
X0025246Y0057782D01*
X0024490Y0057025D02*
X0043059Y0057025D01*
X0042920Y0055827D02*
X0022366Y0055827D01*
X0025925Y0059422D02*
X0101192Y0059422D01*
X0099993Y0060621D02*
X0025950Y0060621D01*
X0025744Y0061819D02*
X0098795Y0061819D01*
X0097596Y0063018D02*
X0025247Y0063018D01*
X0024051Y0064216D02*
X0096398Y0064216D01*
X0095199Y0065415D02*
X0007131Y0065415D01*
X0007131Y0066613D02*
X0094001Y0066613D01*
X0092802Y0067812D02*
X0007131Y0067812D01*
X0007131Y0069011D02*
X0091604Y0069011D01*
X0090405Y0070209D02*
X0007131Y0070209D01*
X0007131Y0071408D02*
X0089207Y0071408D01*
X0088008Y0072606D02*
X0007131Y0072606D01*
X0007131Y0073805D02*
X0011960Y0073805D01*
X0012960Y0072804D02*
X0010793Y0074971D01*
X0010793Y0078037D01*
X0012960Y0080204D01*
X0016025Y0080204D01*
X0018193Y0078037D01*
X0018193Y0074971D01*
X0016025Y0072804D01*
X0012960Y0072804D01*
X0010793Y0075003D02*
X0007131Y0075003D01*
X0007131Y0076202D02*
X0010793Y0076202D01*
X0010793Y0077400D02*
X0007131Y0077400D01*
X0007131Y0078599D02*
X0011355Y0078599D01*
X0012554Y0079797D02*
X0007131Y0079797D01*
X0007131Y0080996D02*
X0067210Y0080996D01*
X0067210Y0082194D02*
X0007131Y0082194D01*
X0007131Y0083393D02*
X0067210Y0083393D01*
X0067662Y0084591D02*
X0007131Y0084591D01*
X0007131Y0085790D02*
X0068702Y0085790D01*
X0073118Y0085790D02*
X0074637Y0085790D01*
X0075836Y0086988D02*
X0007131Y0086988D01*
X0007131Y0088187D02*
X0077034Y0088187D01*
X0077210Y0083393D02*
X0076766Y0083393D01*
X0077210Y0082194D02*
X0075567Y0082194D01*
X0074610Y0080996D02*
X0077210Y0080996D01*
X0077210Y0079797D02*
X0074610Y0079797D01*
X0074610Y0078599D02*
X0077210Y0078599D01*
X0077210Y0077400D02*
X0074610Y0077400D01*
X0074350Y0076202D02*
X0077470Y0076202D01*
X0078240Y0075003D02*
X0073581Y0075003D01*
X0068240Y0075003D02*
X0058193Y0075003D01*
X0058193Y0074971D02*
X0056025Y0072804D01*
X0052960Y0072804D01*
X0050793Y0074971D01*
X0050793Y0078037D01*
X0052960Y0080204D01*
X0056025Y0080204D01*
X0058193Y0078037D01*
X0058193Y0074971D01*
X0058193Y0076202D02*
X0067470Y0076202D01*
X0067210Y0077400D02*
X0058193Y0077400D01*
X0057631Y0078599D02*
X0067210Y0078599D01*
X0067210Y0079797D02*
X0056432Y0079797D01*
X0052554Y0079797D02*
X0016432Y0079797D01*
X0017631Y0078599D02*
X0051355Y0078599D01*
X0050793Y0077400D02*
X0018193Y0077400D01*
X0018193Y0076202D02*
X0050793Y0076202D01*
X0050793Y0075003D02*
X0018193Y0075003D01*
X0017026Y0073805D02*
X0051960Y0073805D01*
X0057026Y0073805D02*
X0086810Y0073805D01*
X0085611Y0075003D02*
X0083581Y0075003D01*
X0084350Y0076202D02*
X0084413Y0076202D01*
X0098394Y0073805D02*
X0177659Y0073805D01*
X0177659Y0075003D02*
X0133581Y0075003D01*
X0134047Y0075469D02*
X0133006Y0074429D01*
X0131646Y0073865D01*
X0130174Y0073865D01*
X0128814Y0074429D01*
X0127774Y0075469D01*
X0127210Y0076829D01*
X0127210Y0083501D01*
X0127774Y0084861D01*
X0128814Y0085902D01*
X0130174Y0086465D01*
X0131646Y0086465D01*
X0133006Y0085902D01*
X0134047Y0084861D01*
X0134610Y0083501D01*
X0134610Y0076829D01*
X0134047Y0075469D01*
X0134350Y0076202D02*
X0177659Y0076202D01*
X0177659Y0077400D02*
X0134610Y0077400D01*
X0134610Y0078599D02*
X0177659Y0078599D01*
X0177659Y0079797D02*
X0134610Y0079797D01*
X0134610Y0080996D02*
X0177659Y0080996D01*
X0177659Y0082194D02*
X0134610Y0082194D01*
X0134610Y0083393D02*
X0177659Y0083393D01*
X0177659Y0084591D02*
X0134159Y0084591D01*
X0133118Y0085790D02*
X0177659Y0085790D01*
X0177659Y0086988D02*
X0115952Y0086988D01*
X0117150Y0085790D02*
X0118702Y0085790D01*
X0114753Y0088187D02*
X0177659Y0088187D01*
X0177659Y0089385D02*
X0113555Y0089385D01*
X0112356Y0090584D02*
X0177659Y0090584D01*
X0177659Y0091782D02*
X0111158Y0091782D01*
X0109959Y0092981D02*
X0177659Y0092981D01*
X0177659Y0094179D02*
X0108761Y0094179D01*
X0107562Y0095378D02*
X0177659Y0095378D01*
X0177659Y0096576D02*
X0106364Y0096576D01*
X0105165Y0097775D02*
X0177659Y0097775D01*
X0177659Y0098973D02*
X0103967Y0098973D01*
X0101646Y0103865D02*
X0100174Y0103865D01*
X0098814Y0104429D01*
X0097774Y0105469D01*
X0097210Y0106829D01*
X0097210Y0113501D01*
X0097774Y0114861D01*
X0098814Y0115902D01*
X0100174Y0116465D01*
X0101646Y0116465D01*
X0103006Y0115902D01*
X0104047Y0114861D01*
X0104610Y0113501D01*
X0104610Y0106829D01*
X0104047Y0105469D01*
X0103006Y0104429D01*
X0101646Y0103865D01*
X0103543Y0104966D02*
X0108277Y0104966D01*
X0107774Y0105469D02*
X0108814Y0104429D01*
X0110174Y0103865D01*
X0111646Y0103865D01*
X0113006Y0104429D01*
X0114047Y0105469D01*
X0114610Y0106829D01*
X0114610Y0113501D01*
X0114047Y0114861D01*
X0113006Y0115902D01*
X0111646Y0116465D01*
X0110174Y0116465D01*
X0108814Y0115902D01*
X0107774Y0114861D01*
X0107210Y0113501D01*
X0107210Y0106829D01*
X0107774Y0105469D01*
X0107486Y0106164D02*
X0104335Y0106164D01*
X0104610Y0107363D02*
X0107210Y0107363D01*
X0107210Y0108561D02*
X0104610Y0108561D01*
X0104610Y0109760D02*
X0107210Y0109760D01*
X0107210Y0110958D02*
X0104610Y0110958D01*
X0104610Y0112157D02*
X0107210Y0112157D01*
X0107210Y0113355D02*
X0104610Y0113355D01*
X0104174Y0114554D02*
X0107646Y0114554D01*
X0108665Y0115752D02*
X0103156Y0115752D01*
X0098665Y0115752D02*
X0093156Y0115752D01*
X0093006Y0115902D02*
X0091646Y0116465D01*
X0090174Y0116465D01*
X0088814Y0115902D01*
X0087774Y0114861D01*
X0087210Y0113501D01*
X0087210Y0106829D01*
X0087774Y0105469D01*
X0088814Y0104429D01*
X0090174Y0103865D01*
X0091646Y0103865D01*
X0093006Y0104429D01*
X0094047Y0105469D01*
X0094610Y0106829D01*
X0094610Y0113501D01*
X0094047Y0114861D01*
X0093006Y0115902D01*
X0094174Y0114554D02*
X0097646Y0114554D01*
X0097210Y0113355D02*
X0094610Y0113355D01*
X0094610Y0112157D02*
X0097210Y0112157D01*
X0097210Y0110958D02*
X0094610Y0110958D01*
X0094610Y0109760D02*
X0097210Y0109760D01*
X0097210Y0108561D02*
X0094610Y0108561D01*
X0094610Y0107363D02*
X0097210Y0107363D01*
X0097486Y0106164D02*
X0094335Y0106164D01*
X0093543Y0104966D02*
X0098277Y0104966D01*
X0088277Y0104966D02*
X0083543Y0104966D01*
X0084335Y0106164D02*
X0087486Y0106164D01*
X0087210Y0107363D02*
X0084610Y0107363D01*
X0084610Y0108561D02*
X0087210Y0108561D01*
X0087210Y0109760D02*
X0084610Y0109760D01*
X0084610Y0110958D02*
X0087210Y0110958D01*
X0087210Y0112157D02*
X0084610Y0112157D01*
X0084610Y0113355D02*
X0087210Y0113355D01*
X0087646Y0114554D02*
X0084174Y0114554D01*
X0083156Y0115752D02*
X0088665Y0115752D01*
X0085684Y0130287D02*
X0083774Y0130287D01*
X0082010Y0131017D01*
X0080660Y0132368D01*
X0079929Y0134132D01*
X0079929Y0136041D01*
X0080660Y0137806D01*
X0082010Y0139156D01*
X0083774Y0139887D01*
X0085684Y0139887D01*
X0087448Y0139156D01*
X0088798Y0137806D01*
X0089529Y0136041D01*
X0089529Y0134132D01*
X0088798Y0132368D01*
X0087448Y0131017D01*
X0085684Y0130287D01*
X0087764Y0131333D02*
X0091694Y0131333D01*
X0090592Y0132532D02*
X0088866Y0132532D01*
X0089363Y0133730D02*
X0090096Y0133730D01*
X0089929Y0134929D02*
X0089529Y0134929D01*
X0089494Y0136127D02*
X0089965Y0136127D01*
X0089889Y0137326D02*
X0088997Y0137326D01*
X0088690Y0138524D02*
X0088080Y0138524D01*
X0087492Y0139723D02*
X0086080Y0139723D01*
X0086293Y0140921D02*
X0067216Y0140921D01*
X0066080Y0139723D02*
X0073379Y0139723D01*
X0073774Y0139887D02*
X0072010Y0139156D01*
X0070660Y0137806D01*
X0069929Y0136041D01*
X0069929Y0134132D01*
X0070660Y0132368D01*
X0072010Y0131017D01*
X0073774Y0130287D01*
X0075684Y0130287D01*
X0077448Y0131017D01*
X0078798Y0132368D01*
X0079529Y0134132D01*
X0079529Y0136041D01*
X0078798Y0137806D01*
X0077448Y0139156D01*
X0075684Y0139887D01*
X0073774Y0139887D01*
X0076080Y0139723D02*
X0083379Y0139723D01*
X0081378Y0138524D02*
X0078080Y0138524D01*
X0078997Y0137326D02*
X0080461Y0137326D01*
X0079965Y0136127D02*
X0079494Y0136127D01*
X0079529Y0134929D02*
X0079929Y0134929D01*
X0080096Y0133730D02*
X0079363Y0133730D01*
X0078866Y0132532D02*
X0080592Y0132532D01*
X0081694Y0131333D02*
X0077764Y0131333D01*
X0071905Y0130135D02*
X0137882Y0130135D01*
X0137448Y0131017D02*
X0138798Y0132368D01*
X0139529Y0134132D01*
X0139529Y0136041D01*
X0138798Y0137806D01*
X0137448Y0139156D01*
X0135684Y0139887D01*
X0133774Y0139887D01*
X0132010Y0139156D01*
X0130660Y0137806D01*
X0129929Y0136041D01*
X0129929Y0134132D01*
X0130660Y0132368D01*
X0132010Y0131017D01*
X0133774Y0130287D01*
X0135684Y0130287D01*
X0137448Y0131017D01*
X0137764Y0131333D02*
X0139081Y0131333D01*
X0138866Y0132532D02*
X0140279Y0132532D01*
X0139363Y0133730D02*
X0141478Y0133730D01*
X0142676Y0134929D02*
X0139529Y0134929D01*
X0139494Y0136127D02*
X0143875Y0136127D01*
X0145073Y0137326D02*
X0138997Y0137326D01*
X0138080Y0138524D02*
X0146272Y0138524D01*
X0138798Y0142368D02*
X0139529Y0144132D01*
X0139529Y0146041D01*
X0138798Y0147806D01*
X0137448Y0149156D01*
X0135710Y0149876D01*
X0135970Y0149917D01*
X0136764Y0150175D01*
X0137507Y0150554D01*
X0138182Y0151044D01*
X0138772Y0151634D01*
X0139262Y0152309D01*
X0139641Y0153052D01*
X0139899Y0153846D01*
X0140029Y0154669D01*
X0140029Y0154687D01*
X0135129Y0154687D01*
X0135129Y0155487D01*
X0140029Y0155487D01*
X0140029Y0155504D01*
X0139899Y0156328D01*
X0139641Y0157121D01*
X0139262Y0157864D01*
X0138772Y0158539D01*
X0138182Y0159129D01*
X0137507Y0159620D01*
X0136764Y0159998D01*
X0135970Y0160256D01*
X0135710Y0160297D01*
X0137448Y0161017D01*
X0138798Y0162368D01*
X0139529Y0164132D01*
X0139529Y0166041D01*
X0138798Y0167806D01*
X0137448Y0169156D01*
X0135684Y0169887D01*
X0133774Y0169887D01*
X0132010Y0169156D01*
X0130660Y0167806D01*
X0129929Y0166041D01*
X0129929Y0164132D01*
X0130660Y0162368D01*
X0132010Y0161017D01*
X0133748Y0160297D01*
X0133488Y0160256D01*
X0132695Y0159998D01*
X0131951Y0159620D01*
X0131276Y0159129D01*
X0130687Y0158539D01*
X0130196Y0157864D01*
X0129817Y0157121D01*
X0129560Y0156328D01*
X0129429Y0155504D01*
X0129429Y0155487D01*
X0134329Y0155487D01*
X0134329Y0154687D01*
X0129429Y0154687D01*
X0129429Y0154669D01*
X0129560Y0153846D01*
X0129817Y0153052D01*
X0130196Y0152309D01*
X0130687Y0151634D01*
X0131276Y0151044D01*
X0131951Y0150554D01*
X0132695Y0150175D01*
X0133488Y0149917D01*
X0133748Y0149876D01*
X0132010Y0149156D01*
X0130660Y0147806D01*
X0129929Y0146041D01*
X0129929Y0144132D01*
X0130660Y0142368D01*
X0132010Y0141017D01*
X0133774Y0140287D01*
X0135684Y0140287D01*
X0137448Y0141017D01*
X0138798Y0142368D01*
X0138550Y0142120D02*
X0217330Y0142120D01*
X0217330Y0143318D02*
X0139192Y0143318D01*
X0139529Y0144517D02*
X0218031Y0144517D01*
X0217330Y0143816D02*
X0217330Y0140295D01*
X0219819Y0137805D01*
X0223340Y0137805D01*
X0225830Y0140295D01*
X0225830Y0143816D01*
X0223340Y0146305D01*
X0219819Y0146305D01*
X0217330Y0143816D01*
X0219229Y0145715D02*
X0139529Y0145715D01*
X0139168Y0146914D02*
X0310280Y0146914D01*
X0310280Y0148112D02*
X0138492Y0148112D01*
X0137074Y0149311D02*
X0310280Y0149311D01*
X0310280Y0150509D02*
X0137420Y0150509D01*
X0138825Y0151708D02*
X0310280Y0151708D01*
X0310280Y0152906D02*
X0139567Y0152906D01*
X0139940Y0154105D02*
X0310280Y0154105D01*
X0310280Y0155303D02*
X0135129Y0155303D01*
X0134329Y0155303D02*
X0075018Y0155303D01*
X0073819Y0154105D02*
X0129519Y0154105D01*
X0129892Y0152906D02*
X0072621Y0152906D01*
X0069794Y0152483D02*
X0077200Y0159890D01*
X0077997Y0159890D01*
X0080878Y0160097D02*
X0133000Y0160097D01*
X0131732Y0161296D02*
X0080878Y0161296D01*
X0080510Y0162494D02*
X0130607Y0162494D01*
X0130111Y0163693D02*
X0007131Y0163693D01*
X0007131Y0164891D02*
X0129929Y0164891D01*
X0129949Y0166090D02*
X0007131Y0166090D01*
X0007131Y0167288D02*
X0130446Y0167288D01*
X0131341Y0168487D02*
X0007131Y0168487D01*
X0007131Y0169685D02*
X0133289Y0169685D01*
X0132332Y0170884D02*
X0007131Y0170884D01*
X0007131Y0172082D02*
X0130945Y0172082D01*
X0130282Y0173281D02*
X0013225Y0173281D01*
X0014424Y0174480D02*
X0129929Y0174480D01*
X0129929Y0175678D02*
X0014609Y0175678D01*
X0014609Y0176877D02*
X0130275Y0176877D01*
X0130929Y0178075D02*
X0014609Y0178075D01*
X0013521Y0179274D02*
X0062294Y0179274D01*
X0061096Y0180472D02*
X0012323Y0180472D01*
X0013520Y0182869D02*
X0058699Y0182869D01*
X0059897Y0181671D02*
X0007131Y0181671D01*
X0007131Y0182869D02*
X0007198Y0182869D01*
X0007131Y0180472D02*
X0008396Y0180472D01*
X0007197Y0179274D02*
X0007131Y0179274D01*
X0010159Y0182869D02*
X0010559Y0182869D01*
X0010559Y0184068D02*
X0010159Y0184068D01*
X0010159Y0185266D02*
X0010559Y0185266D01*
X0010559Y0186465D02*
X0055103Y0186465D01*
X0053905Y0187663D02*
X0015109Y0187663D01*
X0014640Y0188862D02*
X0052706Y0188862D01*
X0051508Y0190060D02*
X0026410Y0190060D01*
X0026764Y0190175D02*
X0027507Y0190554D01*
X0028182Y0191044D01*
X0028772Y0191634D01*
X0029262Y0192309D01*
X0029641Y0193052D01*
X0029899Y0193846D01*
X0029940Y0194106D01*
X0030660Y0192368D01*
X0032010Y0191017D01*
X0033774Y0190287D01*
X0035684Y0190287D01*
X0037448Y0191017D01*
X0038798Y0192368D01*
X0039529Y0194132D01*
X0039529Y0196041D01*
X0038798Y0197806D01*
X0037448Y0199156D01*
X0035684Y0199887D01*
X0033774Y0199887D01*
X0032010Y0199156D01*
X0030660Y0197806D01*
X0029940Y0196067D01*
X0029899Y0196328D01*
X0029641Y0197121D01*
X0029262Y0197864D01*
X0028772Y0198539D01*
X0028182Y0199129D01*
X0027507Y0199620D01*
X0026764Y0199998D01*
X0025970Y0200256D01*
X0025146Y0200387D01*
X0025129Y0200387D01*
X0025129Y0195487D01*
X0024329Y0195487D01*
X0024329Y0200387D01*
X0024312Y0200387D01*
X0023488Y0200256D01*
X0022695Y0199998D01*
X0021951Y0199620D01*
X0021276Y0199129D01*
X0020687Y0198539D01*
X0020196Y0197864D01*
X0019817Y0197121D01*
X0019560Y0196328D01*
X0019429Y0195504D01*
X0019429Y0195487D01*
X0024329Y0195487D01*
X0024329Y0194687D01*
X0019429Y0194687D01*
X0019429Y0194669D01*
X0019560Y0193846D01*
X0019817Y0193052D01*
X0020196Y0192309D01*
X0020687Y0191634D01*
X0021276Y0191044D01*
X0021951Y0190554D01*
X0022695Y0190175D01*
X0023488Y0189917D01*
X0024312Y0189787D01*
X0024329Y0189787D01*
X0024329Y0194687D01*
X0025129Y0194687D01*
X0025129Y0189787D01*
X0025146Y0189787D01*
X0025970Y0189917D01*
X0026764Y0190175D01*
X0025129Y0190060D02*
X0024329Y0190060D01*
X0024329Y0191259D02*
X0025129Y0191259D01*
X0025129Y0192457D02*
X0024329Y0192457D01*
X0024329Y0193656D02*
X0025129Y0193656D01*
X0024329Y0194854D02*
X0015049Y0194854D01*
X0016159Y0196053D02*
X0019516Y0196053D01*
X0019884Y0197251D02*
X0016655Y0197251D01*
X0016998Y0198450D02*
X0020621Y0198450D01*
X0022008Y0199648D02*
X0016998Y0199648D01*
X0016830Y0200847D02*
X0048394Y0200847D01*
X0047196Y0199648D02*
X0046259Y0199648D01*
X0043199Y0199648D02*
X0036259Y0199648D01*
X0038154Y0198450D02*
X0041304Y0198450D01*
X0040430Y0197251D02*
X0039028Y0197251D01*
X0039524Y0196053D02*
X0039934Y0196053D01*
X0039929Y0194854D02*
X0039529Y0194854D01*
X0039332Y0193656D02*
X0040126Y0193656D01*
X0040623Y0192457D02*
X0038835Y0192457D01*
X0037689Y0191259D02*
X0041769Y0191259D01*
X0047689Y0191259D02*
X0050309Y0191259D01*
X0049111Y0192457D02*
X0048835Y0192457D01*
X0049593Y0202045D02*
X0016333Y0202045D01*
X0024329Y0199648D02*
X0025129Y0199648D01*
X0025129Y0198450D02*
X0024329Y0198450D01*
X0024329Y0197251D02*
X0025129Y0197251D01*
X0025129Y0196053D02*
X0024329Y0196053D01*
X0019621Y0193656D02*
X0013036Y0193656D01*
X0013442Y0190060D02*
X0023048Y0190060D01*
X0021062Y0191259D02*
X0007131Y0191259D01*
X0007131Y0192457D02*
X0020121Y0192457D01*
X0028397Y0191259D02*
X0031769Y0191259D01*
X0030623Y0192457D02*
X0029338Y0192457D01*
X0029837Y0193656D02*
X0030126Y0193656D01*
X0030430Y0197251D02*
X0029575Y0197251D01*
X0028837Y0198450D02*
X0031304Y0198450D01*
X0033199Y0199648D02*
X0027451Y0199648D01*
X0010559Y0190060D02*
X0010159Y0190060D01*
X0010159Y0188862D02*
X0010559Y0188862D01*
X0010559Y0187663D02*
X0010159Y0187663D01*
X0007277Y0190060D02*
X0007131Y0190060D01*
X0007131Y0193656D02*
X0009100Y0193656D01*
X0015109Y0185266D02*
X0056302Y0185266D01*
X0057500Y0184068D02*
X0014719Y0184068D01*
X0007493Y0173281D02*
X0007131Y0173281D01*
X0007131Y0162494D02*
X0075484Y0162494D01*
X0075116Y0161296D02*
X0007131Y0161296D01*
X0007131Y0160097D02*
X0075003Y0160097D01*
X0073805Y0158899D02*
X0007131Y0158899D01*
X0007131Y0157700D02*
X0072606Y0157700D01*
X0071408Y0156502D02*
X0007131Y0156502D01*
X0007131Y0155303D02*
X0070209Y0155303D01*
X0069011Y0154105D02*
X0007131Y0154105D01*
X0061223Y0122944D02*
X0061971Y0122944D01*
X0061223Y0121745D02*
X0063169Y0121745D01*
X0060097Y0120547D02*
X0202119Y0120547D01*
X0203064Y0119348D02*
X0170901Y0119348D01*
X0171429Y0118149D02*
X0209494Y0118149D01*
X0209494Y0116951D02*
X0207037Y0116951D01*
X0205020Y0116951D02*
X0171429Y0116951D01*
X0171429Y0115752D02*
X0202952Y0115752D01*
X0209105Y0115752D02*
X0209494Y0115752D01*
X0209494Y0119348D02*
X0208993Y0119348D01*
X0212694Y0119348D02*
X0233064Y0119348D01*
X0232119Y0120547D02*
X0212694Y0120547D01*
X0212694Y0121745D02*
X0227869Y0121745D01*
X0226671Y0122944D02*
X0212694Y0122944D01*
X0212694Y0124142D02*
X0225472Y0124142D01*
X0224274Y0125341D02*
X0212599Y0125341D01*
X0211401Y0126539D02*
X0223075Y0126539D01*
X0221877Y0127738D02*
X0210202Y0127738D01*
X0210428Y0128936D02*
X0220678Y0128936D01*
X0219480Y0130135D02*
X0210428Y0130135D01*
X0210428Y0131333D02*
X0218281Y0131333D01*
X0217083Y0132532D02*
X0210428Y0132532D01*
X0210428Y0133730D02*
X0215884Y0133730D01*
X0214686Y0134929D02*
X0210428Y0134929D01*
X0210428Y0136127D02*
X0213487Y0136127D01*
X0215616Y0138524D02*
X0219100Y0138524D01*
X0217902Y0139723D02*
X0136080Y0139723D01*
X0137216Y0140921D02*
X0217330Y0140921D01*
X0216814Y0137326D02*
X0229591Y0137326D01*
X0229612Y0137305D02*
X0231380Y0137305D01*
X0231380Y0141855D01*
X0231780Y0141855D01*
X0231780Y0142255D01*
X0236330Y0142255D01*
X0236330Y0144023D01*
X0233547Y0146805D01*
X0231780Y0146805D01*
X0231780Y0142255D01*
X0231380Y0142255D01*
X0231380Y0146805D01*
X0229612Y0146805D01*
X0226830Y0144023D01*
X0226830Y0142255D01*
X0231379Y0142255D01*
X0231379Y0141855D01*
X0226830Y0141855D01*
X0226830Y0140088D01*
X0229612Y0137305D01*
X0228393Y0138524D02*
X0224059Y0138524D01*
X0225257Y0139723D02*
X0227194Y0139723D01*
X0226830Y0140921D02*
X0225830Y0140921D01*
X0225830Y0142120D02*
X0231379Y0142120D01*
X0231780Y0142120D02*
X0310280Y0142120D01*
X0310280Y0143318D02*
X0236330Y0143318D01*
X0235835Y0144517D02*
X0310280Y0144517D01*
X0310280Y0145715D02*
X0234637Y0145715D01*
X0231780Y0145715D02*
X0231380Y0145715D01*
X0231380Y0144517D02*
X0231780Y0144517D01*
X0231780Y0143318D02*
X0231380Y0143318D01*
X0231780Y0141855D02*
X0236330Y0141855D01*
X0236330Y0140088D01*
X0233547Y0137305D01*
X0231780Y0137305D01*
X0231780Y0141855D01*
X0231780Y0140921D02*
X0231380Y0140921D01*
X0231380Y0139723D02*
X0231780Y0139723D01*
X0231780Y0138524D02*
X0231380Y0138524D01*
X0231380Y0137326D02*
X0231780Y0137326D01*
X0232836Y0136344D02*
X0232291Y0135798D01*
X0231837Y0135174D01*
X0231487Y0134487D01*
X0231249Y0133754D01*
X0231146Y0133106D01*
X0235528Y0133106D01*
X0235528Y0132106D01*
X0231146Y0132106D01*
X0231249Y0131459D01*
X0231487Y0130725D01*
X0231837Y0130038D01*
X0232291Y0129414D01*
X0232836Y0128869D01*
X0233460Y0128415D01*
X0234147Y0128065D01*
X0234881Y0127827D01*
X0235528Y0127724D01*
X0235528Y0132106D01*
X0236528Y0132106D01*
X0236528Y0127724D01*
X0237176Y0127827D01*
X0237909Y0128065D01*
X0238597Y0128415D01*
X0239220Y0128869D01*
X0239766Y0129414D01*
X0240219Y0130038D01*
X0240569Y0130725D01*
X0240808Y0131459D01*
X0240910Y0132106D01*
X0236528Y0132106D01*
X0236528Y0133106D01*
X0240910Y0133106D01*
X0240808Y0133754D01*
X0240569Y0134487D01*
X0240219Y0135174D01*
X0239766Y0135798D01*
X0239220Y0136344D01*
X0238597Y0136797D01*
X0237909Y0137147D01*
X0237176Y0137386D01*
X0236528Y0137488D01*
X0236528Y0133106D01*
X0235528Y0133106D01*
X0235528Y0137488D01*
X0234881Y0137386D01*
X0234147Y0137147D01*
X0233460Y0136797D01*
X0232836Y0136344D01*
X0232620Y0136127D02*
X0218013Y0136127D01*
X0219211Y0134929D02*
X0231712Y0134929D01*
X0231245Y0133730D02*
X0220410Y0133730D01*
X0221608Y0132532D02*
X0235528Y0132532D01*
X0236528Y0132532D02*
X0310280Y0132532D01*
X0310280Y0133730D02*
X0240811Y0133730D01*
X0240344Y0134929D02*
X0310280Y0134929D01*
X0310280Y0136127D02*
X0239437Y0136127D01*
X0237360Y0137326D02*
X0310280Y0137326D01*
X0310280Y0138524D02*
X0234766Y0138524D01*
X0234696Y0137326D02*
X0233568Y0137326D01*
X0235528Y0137326D02*
X0236528Y0137326D01*
X0236528Y0136127D02*
X0235528Y0136127D01*
X0235528Y0134929D02*
X0236528Y0134929D01*
X0236528Y0133730D02*
X0235528Y0133730D01*
X0235528Y0131333D02*
X0236528Y0131333D01*
X0236528Y0130135D02*
X0235528Y0130135D01*
X0235528Y0128936D02*
X0236528Y0128936D01*
X0236528Y0127738D02*
X0235528Y0127738D01*
X0235445Y0127738D02*
X0226402Y0127738D01*
X0225204Y0128936D02*
X0232769Y0128936D01*
X0231788Y0130135D02*
X0224005Y0130135D01*
X0222807Y0131333D02*
X0231290Y0131333D01*
X0234025Y0126539D02*
X0227601Y0126539D01*
X0228799Y0125341D02*
X0232540Y0125341D01*
X0236611Y0127738D02*
X0310280Y0127738D01*
X0310280Y0128936D02*
X0239288Y0128936D01*
X0240268Y0130135D02*
X0310280Y0130135D01*
X0310280Y0131333D02*
X0240767Y0131333D01*
X0238032Y0126539D02*
X0310280Y0126539D01*
X0310280Y0125341D02*
X0239517Y0125341D01*
X0240155Y0124142D02*
X0310280Y0124142D01*
X0310280Y0122944D02*
X0240428Y0122944D01*
X0240428Y0121745D02*
X0310280Y0121745D01*
X0310280Y0120547D02*
X0239938Y0120547D01*
X0238993Y0119348D02*
X0310280Y0119348D01*
X0310280Y0139723D02*
X0235965Y0139723D01*
X0236330Y0140921D02*
X0310280Y0140921D01*
X0310280Y0156502D02*
X0139842Y0156502D01*
X0139346Y0157700D02*
X0310280Y0157700D01*
X0310280Y0158899D02*
X0138412Y0158899D01*
X0136459Y0160097D02*
X0310280Y0160097D01*
X0310280Y0161296D02*
X0137727Y0161296D01*
X0138851Y0162494D02*
X0310280Y0162494D01*
X0310280Y0163693D02*
X0139347Y0163693D01*
X0139529Y0164891D02*
X0193377Y0164891D01*
X0193394Y0164884D02*
X0191887Y0165508D01*
X0190734Y0166662D01*
X0190109Y0168169D01*
X0190109Y0169800D01*
X0190734Y0171307D01*
X0191887Y0172460D01*
X0193394Y0173084D01*
X0201025Y0173084D01*
X0202532Y0172460D01*
X0203685Y0171307D01*
X0204309Y0169800D01*
X0204309Y0168169D01*
X0203685Y0166662D01*
X0202532Y0165508D01*
X0201025Y0164884D01*
X0193394Y0164884D01*
X0191305Y0166090D02*
X0139509Y0166090D01*
X0139013Y0167288D02*
X0190474Y0167288D01*
X0190109Y0168487D02*
X0138117Y0168487D01*
X0136169Y0169685D02*
X0190109Y0169685D01*
X0190559Y0170884D02*
X0137126Y0170884D01*
X0138513Y0172082D02*
X0191509Y0172082D01*
X0193246Y0174480D02*
X0139529Y0174480D01*
X0139529Y0175678D02*
X0191010Y0175678D01*
X0190121Y0176877D02*
X0139183Y0176877D01*
X0138529Y0178075D02*
X0189696Y0178075D01*
X0189856Y0180472D02*
X0139041Y0180472D01*
X0137843Y0179274D02*
X0196809Y0179274D01*
X0197610Y0179274D02*
X0212990Y0179274D01*
X0213791Y0179274D02*
X0229172Y0179274D01*
X0229172Y0179384D02*
X0229172Y0178584D01*
X0229972Y0178584D01*
X0229972Y0179384D01*
X0236692Y0179384D01*
X0236623Y0178951D01*
X0243817Y0178951D01*
X0243817Y0178151D01*
X0237097Y0178151D01*
X0237166Y0178584D01*
X0229972Y0178584D01*
X0229972Y0174384D01*
X0232934Y0174384D01*
X0233649Y0174498D01*
X0234337Y0174721D01*
X0234983Y0175050D01*
X0235568Y0175476D01*
X0236080Y0175988D01*
X0236506Y0176573D01*
X0236822Y0177193D01*
X0236954Y0176785D01*
X0237283Y0176140D01*
X0237709Y0175554D01*
X0238221Y0175042D01*
X0238806Y0174617D01*
X0239452Y0174288D01*
X0240140Y0174064D01*
X0240855Y0173951D01*
X0243817Y0173951D01*
X0243817Y0178151D01*
X0244617Y0178151D01*
X0244617Y0173951D01*
X0247579Y0173951D01*
X0248294Y0174064D01*
X0248983Y0174288D01*
X0249628Y0174617D01*
X0250214Y0175042D01*
X0250726Y0175554D01*
X0251152Y0176140D01*
X0251480Y0176785D01*
X0251704Y0177474D01*
X0251811Y0178151D01*
X0244617Y0178151D01*
X0244617Y0178951D01*
X0243817Y0178951D01*
X0243817Y0183151D01*
X0240855Y0183151D01*
X0240140Y0183038D01*
X0239452Y0182814D01*
X0238806Y0182485D01*
X0238221Y0182060D01*
X0237709Y0181548D01*
X0237283Y0180962D01*
X0236967Y0180342D01*
X0236835Y0180750D01*
X0236506Y0181395D01*
X0236080Y0181981D01*
X0235568Y0182493D01*
X0234983Y0182919D01*
X0234337Y0183247D01*
X0233649Y0183471D01*
X0232934Y0183584D01*
X0229972Y0183584D01*
X0229972Y0179384D01*
X0229172Y0179384D01*
X0229172Y0178584D02*
X0221978Y0178584D01*
X0222085Y0177907D01*
X0222309Y0177218D01*
X0222637Y0176573D01*
X0223063Y0175988D01*
X0223575Y0175476D01*
X0224161Y0175050D01*
X0224806Y0174721D01*
X0225494Y0174498D01*
X0226210Y0174384D01*
X0229172Y0174384D01*
X0229172Y0178584D01*
X0229172Y0178075D02*
X0229972Y0178075D01*
X0229972Y0176877D02*
X0229172Y0176877D01*
X0229172Y0175678D02*
X0229972Y0175678D01*
X0229972Y0174480D02*
X0229172Y0174480D01*
X0225608Y0174480D02*
X0217354Y0174480D01*
X0217468Y0174498D02*
X0218156Y0174721D01*
X0218801Y0175050D01*
X0219387Y0175476D01*
X0219899Y0175988D01*
X0220325Y0176573D01*
X0220654Y0177218D01*
X0220877Y0177907D01*
X0220985Y0178584D01*
X0213791Y0178584D01*
X0213791Y0174384D01*
X0216753Y0174384D01*
X0217468Y0174498D01*
X0217206Y0173084D02*
X0209575Y0173084D01*
X0208068Y0172460D01*
X0206915Y0171307D01*
X0206291Y0169800D01*
X0206291Y0168169D01*
X0206915Y0166662D01*
X0208068Y0165508D01*
X0209575Y0164884D01*
X0217206Y0164884D01*
X0218713Y0165508D01*
X0219866Y0166662D01*
X0220491Y0168169D01*
X0220491Y0169800D01*
X0219866Y0171307D01*
X0218713Y0172460D01*
X0217206Y0173084D01*
X0219091Y0172082D02*
X0223872Y0172082D01*
X0224249Y0172460D02*
X0223096Y0171307D01*
X0222472Y0169800D01*
X0222472Y0168169D01*
X0223096Y0166662D01*
X0224249Y0165508D01*
X0225756Y0164884D01*
X0233387Y0164884D01*
X0234894Y0165508D01*
X0236047Y0166662D01*
X0236672Y0168169D01*
X0236672Y0169800D01*
X0236047Y0171307D01*
X0234894Y0172460D01*
X0233387Y0173084D01*
X0225756Y0173084D01*
X0224249Y0172460D01*
X0222921Y0170884D02*
X0220041Y0170884D01*
X0220491Y0169685D02*
X0222472Y0169685D01*
X0222472Y0168487D02*
X0220491Y0168487D01*
X0220126Y0167288D02*
X0222836Y0167288D01*
X0223668Y0166090D02*
X0219295Y0166090D01*
X0217223Y0164891D02*
X0225739Y0164891D01*
X0233405Y0164891D02*
X0239339Y0164891D01*
X0238895Y0165075D02*
X0240402Y0164451D01*
X0248033Y0164451D01*
X0249540Y0165075D01*
X0250693Y0166229D01*
X0251317Y0167736D01*
X0251317Y0169367D01*
X0250693Y0170874D01*
X0249540Y0172027D01*
X0248033Y0172651D01*
X0240402Y0172651D01*
X0238895Y0172027D01*
X0237742Y0170874D01*
X0237117Y0169367D01*
X0237117Y0167736D01*
X0237742Y0166229D01*
X0238895Y0165075D01*
X0237880Y0166090D02*
X0235476Y0166090D01*
X0236307Y0167288D02*
X0237303Y0167288D01*
X0237117Y0168487D02*
X0236672Y0168487D01*
X0236672Y0169685D02*
X0237249Y0169685D01*
X0237752Y0170884D02*
X0236223Y0170884D01*
X0235272Y0172082D02*
X0239029Y0172082D01*
X0239076Y0174480D02*
X0233535Y0174480D01*
X0235771Y0175678D02*
X0237619Y0175678D01*
X0236925Y0176877D02*
X0236660Y0176877D01*
X0236674Y0179274D02*
X0229972Y0179274D01*
X0229972Y0180472D02*
X0229172Y0180472D01*
X0229172Y0181671D02*
X0229972Y0181671D01*
X0229972Y0182869D02*
X0229172Y0182869D01*
X0227637Y0184068D02*
X0269047Y0184068D01*
X0267848Y0185266D02*
X0265912Y0185266D01*
X0266972Y0186465D02*
X0267094Y0186465D01*
X0265164Y0182814D02*
X0264476Y0183038D01*
X0263760Y0183151D01*
X0260798Y0183151D01*
X0260798Y0178951D01*
X0259998Y0178951D01*
X0259998Y0178151D01*
X0252804Y0178151D01*
X0252912Y0177474D01*
X0253135Y0176785D01*
X0253464Y0176140D01*
X0253890Y0175554D01*
X0254402Y0175042D01*
X0254987Y0174617D01*
X0255633Y0174288D01*
X0256321Y0174064D01*
X0257036Y0173951D01*
X0259998Y0173951D01*
X0259998Y0178151D01*
X0260798Y0178151D01*
X0260798Y0173951D01*
X0263760Y0173951D01*
X0264476Y0174064D01*
X0265164Y0174288D01*
X0265809Y0174617D01*
X0266395Y0175042D01*
X0266907Y0175554D01*
X0267333Y0176140D01*
X0267661Y0176785D01*
X0267885Y0177474D01*
X0267992Y0178151D01*
X0260798Y0178151D01*
X0260798Y0178951D01*
X0267992Y0178951D01*
X0267885Y0179628D01*
X0267661Y0180317D01*
X0267333Y0180962D01*
X0266907Y0181548D01*
X0266395Y0182060D01*
X0265809Y0182485D01*
X0265164Y0182814D01*
X0264995Y0182869D02*
X0270245Y0182869D01*
X0270194Y0181671D02*
X0266784Y0181671D01*
X0267582Y0180472D02*
X0269396Y0180472D01*
X0269037Y0179274D02*
X0267941Y0179274D01*
X0267980Y0178075D02*
X0268998Y0178075D01*
X0269287Y0176877D02*
X0267691Y0176877D01*
X0266997Y0175678D02*
X0269981Y0175678D01*
X0271438Y0174480D02*
X0265540Y0174480D01*
X0264214Y0172651D02*
X0256583Y0172651D01*
X0255076Y0172027D01*
X0253923Y0170874D01*
X0253298Y0169367D01*
X0253298Y0167736D01*
X0253923Y0166229D01*
X0255076Y0165075D01*
X0256583Y0164451D01*
X0264214Y0164451D01*
X0265721Y0165075D01*
X0266874Y0166229D01*
X0267498Y0167736D01*
X0267498Y0169367D01*
X0266874Y0170874D01*
X0265721Y0172027D01*
X0264214Y0172651D01*
X0265587Y0172082D02*
X0271391Y0172082D01*
X0271257Y0172027D02*
X0270104Y0170874D01*
X0269480Y0169367D01*
X0269480Y0167736D01*
X0270104Y0166229D01*
X0271257Y0165075D01*
X0272764Y0164451D01*
X0280395Y0164451D01*
X0281902Y0165075D01*
X0283055Y0166229D01*
X0283680Y0167736D01*
X0283680Y0169367D01*
X0283055Y0170874D01*
X0281902Y0172027D01*
X0280395Y0172651D01*
X0272764Y0172651D01*
X0271257Y0172027D01*
X0270114Y0170884D02*
X0266864Y0170884D01*
X0267366Y0169685D02*
X0269612Y0169685D01*
X0269480Y0168487D02*
X0267498Y0168487D01*
X0267313Y0167288D02*
X0269665Y0167288D01*
X0270242Y0166090D02*
X0266735Y0166090D01*
X0265277Y0164891D02*
X0271701Y0164891D01*
X0281458Y0164891D02*
X0289898Y0164891D01*
X0290488Y0164301D02*
X0294009Y0164301D01*
X0296499Y0166791D01*
X0296499Y0170312D01*
X0294009Y0172801D01*
X0290488Y0172801D01*
X0287999Y0170312D01*
X0287999Y0166791D01*
X0290488Y0164301D01*
X0288700Y0166090D02*
X0282917Y0166090D01*
X0283494Y0167288D02*
X0287999Y0167288D01*
X0287999Y0168487D02*
X0283680Y0168487D01*
X0283547Y0169685D02*
X0287999Y0169685D01*
X0288571Y0170884D02*
X0283045Y0170884D01*
X0281768Y0172082D02*
X0289770Y0172082D01*
X0290281Y0173801D02*
X0287499Y0176584D01*
X0287499Y0178351D01*
X0292049Y0178351D01*
X0292449Y0178351D01*
X0292449Y0178751D01*
X0296999Y0178751D01*
X0296999Y0180519D01*
X0294216Y0183301D01*
X0292449Y0183301D01*
X0292449Y0178751D01*
X0292049Y0178751D01*
X0292049Y0178351D01*
X0292049Y0173801D01*
X0290281Y0173801D01*
X0289603Y0174480D02*
X0281721Y0174480D01*
X0281990Y0174617D02*
X0281345Y0174288D01*
X0280657Y0174064D01*
X0279942Y0173951D01*
X0276980Y0173951D01*
X0276980Y0178151D01*
X0284173Y0178151D01*
X0284066Y0177474D01*
X0283843Y0176785D01*
X0283514Y0176140D01*
X0283088Y0175554D01*
X0282576Y0175042D01*
X0281990Y0174617D01*
X0283178Y0175678D02*
X0288404Y0175678D01*
X0287499Y0176877D02*
X0283872Y0176877D01*
X0284161Y0178075D02*
X0287499Y0178075D01*
X0287499Y0178751D02*
X0292049Y0178751D01*
X0292049Y0183301D01*
X0290281Y0183301D01*
X0287499Y0180519D01*
X0287499Y0178751D01*
X0287499Y0179274D02*
X0284122Y0179274D01*
X0283763Y0180472D02*
X0287499Y0180472D01*
X0288651Y0181671D02*
X0282965Y0181671D01*
X0282442Y0182869D02*
X0289849Y0182869D01*
X0292049Y0182869D02*
X0292449Y0182869D01*
X0292449Y0181671D02*
X0292049Y0181671D01*
X0292049Y0180472D02*
X0292449Y0180472D01*
X0292449Y0179274D02*
X0292049Y0179274D01*
X0292449Y0178351D02*
X0296999Y0178351D01*
X0296999Y0176584D01*
X0294216Y0173801D01*
X0292449Y0173801D01*
X0292449Y0178351D01*
X0292449Y0178075D02*
X0292049Y0178075D01*
X0292049Y0176877D02*
X0292449Y0176877D01*
X0292449Y0175678D02*
X0292049Y0175678D01*
X0292049Y0174480D02*
X0292449Y0174480D01*
X0294895Y0174480D02*
X0310280Y0174480D01*
X0310280Y0173281D02*
X0139177Y0173281D01*
X0131046Y0158899D02*
X0080878Y0158899D01*
X0080878Y0157700D02*
X0130113Y0157700D01*
X0129616Y0156502D02*
X0076216Y0156502D01*
X0080032Y0151708D02*
X0130633Y0151708D01*
X0132038Y0150509D02*
X0081231Y0150509D01*
X0082429Y0149311D02*
X0132384Y0149311D01*
X0130967Y0148112D02*
X0083628Y0148112D01*
X0084826Y0146914D02*
X0130290Y0146914D01*
X0129929Y0145715D02*
X0086025Y0145715D01*
X0087223Y0144517D02*
X0129929Y0144517D01*
X0130266Y0143318D02*
X0088422Y0143318D01*
X0089620Y0142120D02*
X0130908Y0142120D01*
X0132242Y0140921D02*
X0090819Y0140921D01*
X0092017Y0139723D02*
X0093379Y0139723D01*
X0096080Y0139723D02*
X0103379Y0139723D01*
X0103774Y0139887D02*
X0102010Y0139156D01*
X0100660Y0137806D01*
X0099929Y0136041D01*
X0099929Y0134132D01*
X0100660Y0132368D01*
X0102010Y0131017D01*
X0103774Y0130287D01*
X0105684Y0130287D01*
X0107448Y0131017D01*
X0108798Y0132368D01*
X0109529Y0134132D01*
X0109529Y0136041D01*
X0108798Y0137806D01*
X0107448Y0139156D01*
X0105684Y0139887D01*
X0103774Y0139887D01*
X0106080Y0139723D02*
X0113379Y0139723D01*
X0113774Y0139887D02*
X0112010Y0139156D01*
X0110660Y0137806D01*
X0109929Y0136041D01*
X0109929Y0134132D01*
X0110660Y0132368D01*
X0112010Y0131017D01*
X0113774Y0130287D01*
X0115684Y0130287D01*
X0117448Y0131017D01*
X0118798Y0132368D01*
X0119529Y0134132D01*
X0119529Y0136041D01*
X0118798Y0137806D01*
X0117448Y0139156D01*
X0115684Y0139887D01*
X0113774Y0139887D01*
X0116080Y0139723D02*
X0123379Y0139723D01*
X0123774Y0139887D02*
X0122010Y0139156D01*
X0120660Y0137806D01*
X0119929Y0136041D01*
X0119929Y0134132D01*
X0120660Y0132368D01*
X0122010Y0131017D01*
X0123774Y0130287D01*
X0125684Y0130287D01*
X0127448Y0131017D01*
X0128798Y0132368D01*
X0129529Y0134132D01*
X0129529Y0136041D01*
X0128798Y0137806D01*
X0127448Y0139156D01*
X0125684Y0139887D01*
X0123774Y0139887D01*
X0126080Y0139723D02*
X0133379Y0139723D01*
X0131378Y0138524D02*
X0128080Y0138524D01*
X0128997Y0137326D02*
X0130461Y0137326D01*
X0129965Y0136127D02*
X0129494Y0136127D01*
X0129529Y0134929D02*
X0129929Y0134929D01*
X0130096Y0133730D02*
X0129363Y0133730D01*
X0128866Y0132532D02*
X0130592Y0132532D01*
X0131694Y0131333D02*
X0127764Y0131333D01*
X0121694Y0131333D02*
X0117764Y0131333D01*
X0118866Y0132532D02*
X0120592Y0132532D01*
X0120096Y0133730D02*
X0119363Y0133730D01*
X0119529Y0134929D02*
X0119929Y0134929D01*
X0119965Y0136127D02*
X0119494Y0136127D01*
X0118997Y0137326D02*
X0120461Y0137326D01*
X0121378Y0138524D02*
X0118080Y0138524D01*
X0111378Y0138524D02*
X0108080Y0138524D01*
X0108997Y0137326D02*
X0110461Y0137326D01*
X0109965Y0136127D02*
X0109494Y0136127D01*
X0109529Y0134929D02*
X0109929Y0134929D01*
X0110096Y0133730D02*
X0109363Y0133730D01*
X0108866Y0132532D02*
X0110592Y0132532D01*
X0111694Y0131333D02*
X0107764Y0131333D01*
X0101694Y0131333D02*
X0097764Y0131333D01*
X0098866Y0132532D02*
X0100592Y0132532D01*
X0100096Y0133730D02*
X0099363Y0133730D01*
X0099529Y0134929D02*
X0099929Y0134929D01*
X0099965Y0136127D02*
X0099494Y0136127D01*
X0098997Y0137326D02*
X0100461Y0137326D01*
X0101378Y0138524D02*
X0098080Y0138524D01*
X0085095Y0142120D02*
X0068550Y0142120D01*
X0069192Y0143318D02*
X0083896Y0143318D01*
X0082698Y0144517D02*
X0069529Y0144517D01*
X0069529Y0145715D02*
X0081499Y0145715D01*
X0080301Y0146914D02*
X0069168Y0146914D01*
X0068492Y0148112D02*
X0079102Y0148112D01*
X0071378Y0138524D02*
X0068080Y0138524D01*
X0068997Y0137326D02*
X0070461Y0137326D01*
X0069965Y0136127D02*
X0069494Y0136127D01*
X0069529Y0134929D02*
X0069929Y0134929D01*
X0070096Y0133730D02*
X0069363Y0133730D01*
X0069508Y0132532D02*
X0070592Y0132532D01*
X0070707Y0131333D02*
X0071694Y0131333D01*
X0067958Y0115752D02*
X0061371Y0115752D01*
X0061723Y0114554D02*
X0067108Y0114554D01*
X0094053Y0088187D02*
X0100328Y0088187D01*
X0101526Y0086988D02*
X0095252Y0086988D01*
X0096450Y0085790D02*
X0098702Y0085790D01*
X0097662Y0084591D02*
X0097649Y0084591D01*
X0104610Y0083393D02*
X0105122Y0083393D01*
X0104610Y0082194D02*
X0106320Y0082194D01*
X0107210Y0080996D02*
X0104610Y0080996D01*
X0104610Y0079797D02*
X0107210Y0079797D01*
X0107210Y0078599D02*
X0104610Y0078599D01*
X0104610Y0077400D02*
X0107210Y0077400D01*
X0107470Y0076202D02*
X0104350Y0076202D01*
X0103581Y0075003D02*
X0108240Y0075003D01*
X0113581Y0075003D02*
X0118240Y0075003D01*
X0117470Y0076202D02*
X0114350Y0076202D01*
X0114610Y0077400D02*
X0117210Y0077400D01*
X0117210Y0078599D02*
X0114610Y0078599D01*
X0114610Y0079797D02*
X0117210Y0079797D01*
X0117210Y0080996D02*
X0114610Y0080996D01*
X0114610Y0082194D02*
X0116220Y0082194D01*
X0115022Y0083393D02*
X0114610Y0083393D01*
X0123118Y0085790D02*
X0128702Y0085790D01*
X0127662Y0084591D02*
X0124159Y0084591D01*
X0124610Y0083393D02*
X0127210Y0083393D01*
X0127210Y0082194D02*
X0124610Y0082194D01*
X0124610Y0080996D02*
X0127210Y0080996D01*
X0127210Y0079797D02*
X0124610Y0079797D01*
X0124610Y0078599D02*
X0127210Y0078599D01*
X0127210Y0077400D02*
X0124610Y0077400D01*
X0124350Y0076202D02*
X0127470Y0076202D01*
X0128240Y0075003D02*
X0123581Y0075003D01*
X0101226Y0066613D02*
X0177659Y0066613D01*
X0177659Y0067812D02*
X0100028Y0067812D01*
X0098829Y0069011D02*
X0177659Y0069011D01*
X0177659Y0070209D02*
X0098394Y0070209D01*
X0098394Y0071408D02*
X0177659Y0071408D01*
X0177659Y0072606D02*
X0098394Y0072606D01*
X0101132Y0051033D02*
X0105336Y0051033D01*
X0104137Y0049834D02*
X0102330Y0049834D01*
X0102837Y0048636D02*
X0103837Y0048636D01*
X0108387Y0045040D02*
X0108787Y0045040D01*
X0108787Y0043842D02*
X0108387Y0043842D01*
X0109235Y0030037D02*
X0107739Y0029418D01*
X0106595Y0028273D01*
X0105976Y0026778D01*
X0105976Y0019222D01*
X0106595Y0017727D01*
X0107739Y0016582D01*
X0109235Y0015963D01*
X0110853Y0015963D01*
X0112349Y0016582D01*
X0113493Y0017727D01*
X0114113Y0019222D01*
X0114113Y0026778D01*
X0113493Y0028273D01*
X0112349Y0029418D01*
X0110853Y0030037D01*
X0109235Y0030037D01*
X0107841Y0029460D02*
X0102247Y0029460D01*
X0103498Y0028261D02*
X0106590Y0028261D01*
X0106094Y0027063D02*
X0103995Y0027063D01*
X0104113Y0025864D02*
X0105976Y0025864D01*
X0105976Y0024666D02*
X0104113Y0024666D01*
X0104113Y0023467D02*
X0105976Y0023467D01*
X0105976Y0022269D02*
X0104113Y0022269D01*
X0104113Y0021070D02*
X0105976Y0021070D01*
X0105976Y0019872D02*
X0104113Y0019872D01*
X0103885Y0018673D02*
X0106203Y0018673D01*
X0106847Y0017475D02*
X0103241Y0017475D01*
X0101609Y0016276D02*
X0108479Y0016276D01*
X0111609Y0016276D02*
X0117441Y0016276D01*
X0116255Y0017475D02*
X0113241Y0017475D01*
X0113885Y0018673D02*
X0115682Y0018673D01*
X0115476Y0019872D02*
X0114113Y0019872D01*
X0114113Y0021070D02*
X0115476Y0021070D01*
X0115476Y0022269D02*
X0114113Y0022269D01*
X0114113Y0023467D02*
X0115476Y0023467D01*
X0115476Y0023384D02*
X0119660Y0023384D01*
X0119660Y0030533D01*
X0118974Y0030425D01*
X0118290Y0030202D01*
X0117650Y0029876D01*
X0117068Y0029453D01*
X0116559Y0028945D01*
X0116137Y0028363D01*
X0115810Y0027722D01*
X0115588Y0027038D01*
X0115476Y0026328D01*
X0115476Y0023384D01*
X0115476Y0024666D02*
X0114113Y0024666D01*
X0114113Y0025864D02*
X0115476Y0025864D01*
X0115596Y0027063D02*
X0113995Y0027063D01*
X0113498Y0028261D02*
X0116085Y0028261D01*
X0117077Y0029460D02*
X0112247Y0029460D01*
X0119660Y0029460D02*
X0120428Y0029460D01*
X0120428Y0028261D02*
X0119660Y0028261D01*
X0119660Y0027063D02*
X0120428Y0027063D01*
X0120428Y0025864D02*
X0119660Y0025864D01*
X0119660Y0024666D02*
X0120428Y0024666D01*
X0120428Y0023467D02*
X0119660Y0023467D01*
X0119660Y0022269D02*
X0120428Y0022269D01*
X0120428Y0021070D02*
X0119660Y0021070D01*
X0119660Y0019872D02*
X0120428Y0019872D01*
X0120428Y0018673D02*
X0119660Y0018673D01*
X0119660Y0017475D02*
X0120428Y0017475D01*
X0120428Y0016276D02*
X0119660Y0016276D01*
X0044429Y0031857D02*
X0007131Y0031857D01*
X0007131Y0033055D02*
X0043230Y0033055D01*
X0042920Y0034254D02*
X0007131Y0034254D01*
X0007131Y0035452D02*
X0042920Y0035452D01*
X0042920Y0036651D02*
X0023595Y0036651D01*
X0024998Y0037849D02*
X0043883Y0037849D01*
X0045253Y0051033D02*
X0007131Y0051033D01*
X0007131Y0052231D02*
X0044054Y0052231D01*
X0042920Y0053430D02*
X0007131Y0053430D01*
X0007131Y0054628D02*
X0042920Y0054628D01*
X0013234Y0055827D02*
X0007131Y0055827D01*
X0007131Y0057025D02*
X0011110Y0057025D01*
X0010171Y0058224D02*
X0007131Y0058224D01*
X0007131Y0059422D02*
X0009674Y0059422D01*
X0009650Y0060621D02*
X0007131Y0060621D01*
X0007131Y0061819D02*
X0009856Y0061819D01*
X0010353Y0063018D02*
X0007131Y0063018D01*
X0007131Y0064216D02*
X0011549Y0064216D01*
X0012628Y0045040D02*
X0007131Y0045040D01*
X0007131Y0043842D02*
X0010860Y0043842D01*
X0010067Y0042643D02*
X0007131Y0042643D01*
X0007131Y0041445D02*
X0009650Y0041445D01*
X0009650Y0040246D02*
X0007131Y0040246D01*
X0007131Y0039048D02*
X0009960Y0039048D01*
X0010602Y0037849D02*
X0007131Y0037849D01*
X0007131Y0036651D02*
X0012005Y0036651D01*
X0008389Y0023467D02*
X0007131Y0023467D01*
X0007131Y0089385D02*
X0009371Y0089385D01*
X0008173Y0090584D02*
X0007131Y0090584D01*
X0007131Y0091782D02*
X0008037Y0091782D01*
X0008037Y0092981D02*
X0007131Y0092981D01*
X0007131Y0094179D02*
X0008432Y0094179D01*
X0009630Y0095378D02*
X0007131Y0095378D01*
X0113543Y0104966D02*
X0118277Y0104966D01*
X0117774Y0105469D02*
X0118814Y0104429D01*
X0120174Y0103865D01*
X0121646Y0103865D01*
X0123006Y0104429D01*
X0124047Y0105469D01*
X0124610Y0106829D01*
X0124610Y0113501D01*
X0124047Y0114861D01*
X0123006Y0115902D01*
X0121646Y0116465D01*
X0120174Y0116465D01*
X0118814Y0115902D01*
X0117774Y0114861D01*
X0117210Y0113501D01*
X0117210Y0106829D01*
X0117774Y0105469D01*
X0117486Y0106164D02*
X0114335Y0106164D01*
X0114610Y0107363D02*
X0117210Y0107363D01*
X0117210Y0108561D02*
X0114610Y0108561D01*
X0114610Y0109760D02*
X0117210Y0109760D01*
X0117210Y0110958D02*
X0114610Y0110958D01*
X0114610Y0112157D02*
X0117210Y0112157D01*
X0117210Y0113355D02*
X0114610Y0113355D01*
X0114174Y0114554D02*
X0117646Y0114554D01*
X0118665Y0115752D02*
X0113156Y0115752D01*
X0123156Y0115752D02*
X0128665Y0115752D01*
X0127646Y0114554D02*
X0124174Y0114554D01*
X0124610Y0113355D02*
X0127210Y0113355D01*
X0127210Y0112157D02*
X0124610Y0112157D01*
X0124610Y0110958D02*
X0127210Y0110958D01*
X0127210Y0109760D02*
X0124610Y0109760D01*
X0124610Y0108561D02*
X0127210Y0108561D01*
X0127210Y0107363D02*
X0124610Y0107363D01*
X0124335Y0106164D02*
X0127486Y0106164D01*
X0128277Y0104966D02*
X0123543Y0104966D01*
X0143341Y0119348D02*
X0166196Y0119348D01*
X0183059Y0107363D02*
X0209494Y0107363D01*
X0209494Y0108561D02*
X0207761Y0108561D01*
X0209404Y0109760D02*
X0209494Y0109760D01*
X0204296Y0108561D02*
X0184030Y0108561D01*
X0185229Y0109760D02*
X0202652Y0109760D01*
X0203364Y0106164D02*
X0183059Y0106164D01*
X0208693Y0106164D02*
X0209494Y0106164D01*
X0205109Y0086988D02*
X0183059Y0086988D01*
X0183059Y0085790D02*
X0202989Y0085790D01*
X0202088Y0084591D02*
X0183059Y0084591D01*
X0183059Y0083393D02*
X0201628Y0083393D01*
X0199617Y0082194D02*
X0183059Y0082194D01*
X0183059Y0080996D02*
X0197413Y0080996D01*
X0195208Y0079797D02*
X0183059Y0079797D01*
X0183059Y0078599D02*
X0193755Y0078599D01*
X0193372Y0077400D02*
X0183059Y0077400D01*
X0183059Y0076202D02*
X0193407Y0076202D01*
X0193407Y0075003D02*
X0183059Y0075003D01*
X0183059Y0073805D02*
X0193407Y0073805D01*
X0193407Y0072606D02*
X0183059Y0072606D01*
X0183059Y0071408D02*
X0193407Y0071408D01*
X0193407Y0070209D02*
X0183059Y0070209D01*
X0183059Y0069011D02*
X0193407Y0069011D01*
X0193407Y0067812D02*
X0183059Y0067812D01*
X0198807Y0067812D02*
X0310280Y0067812D01*
X0310280Y0057025D02*
X0198807Y0057025D01*
X0198807Y0055827D02*
X0310280Y0055827D01*
X0310280Y0054628D02*
X0198807Y0054628D01*
X0198807Y0053430D02*
X0310280Y0053430D01*
X0310280Y0052231D02*
X0217255Y0052231D01*
X0218453Y0051033D02*
X0310280Y0051033D01*
X0310280Y0049834D02*
X0219652Y0049834D01*
X0219952Y0048636D02*
X0310280Y0048636D01*
X0310280Y0047437D02*
X0215402Y0047437D01*
X0215402Y0047367D02*
X0219952Y0047367D01*
X0219952Y0045599D01*
X0217169Y0042817D01*
X0215402Y0042817D01*
X0215402Y0047367D01*
X0215001Y0047437D02*
X0209452Y0047437D01*
X0209452Y0046239D02*
X0210452Y0046239D01*
X0211011Y0045040D02*
X0208685Y0045040D01*
X0207487Y0043842D02*
X0212209Y0043842D01*
X0215002Y0043842D02*
X0215402Y0043842D01*
X0215402Y0045040D02*
X0215002Y0045040D01*
X0215002Y0046239D02*
X0215402Y0046239D01*
X0215402Y0048636D02*
X0215002Y0048636D01*
X0215002Y0049834D02*
X0215402Y0049834D01*
X0215402Y0051033D02*
X0215002Y0051033D01*
X0215002Y0052231D02*
X0215402Y0052231D01*
X0211950Y0051033D02*
X0207746Y0051033D01*
X0208945Y0049834D02*
X0210751Y0049834D01*
X0210452Y0048636D02*
X0209452Y0048636D01*
X0218194Y0043842D02*
X0310280Y0043842D01*
X0310280Y0045040D02*
X0219392Y0045040D01*
X0219952Y0046239D02*
X0310280Y0046239D01*
X0310280Y0023467D02*
X0309022Y0023467D01*
X0212502Y0017475D02*
X0205145Y0017475D01*
X0206920Y0018673D02*
X0210728Y0018673D01*
X0210024Y0019872D02*
X0207623Y0019872D01*
X0207892Y0021070D02*
X0209755Y0021070D01*
X0209755Y0022269D02*
X0207892Y0022269D01*
X0207892Y0023467D02*
X0209755Y0023467D01*
X0209755Y0024666D02*
X0207892Y0024666D01*
X0207892Y0025864D02*
X0209755Y0025864D01*
X0209755Y0027063D02*
X0207892Y0027063D01*
X0207816Y0028261D02*
X0209831Y0028261D01*
X0210328Y0029460D02*
X0207319Y0029460D01*
X0206187Y0030658D02*
X0211460Y0030658D01*
X0225830Y0143318D02*
X0226830Y0143318D01*
X0227324Y0144517D02*
X0225128Y0144517D01*
X0223930Y0145715D02*
X0228522Y0145715D01*
X0209558Y0164891D02*
X0201042Y0164891D01*
X0203113Y0166090D02*
X0207487Y0166090D01*
X0206655Y0167288D02*
X0203945Y0167288D01*
X0204309Y0168487D02*
X0206291Y0168487D01*
X0206291Y0169685D02*
X0204309Y0169685D01*
X0203860Y0170884D02*
X0206740Y0170884D01*
X0207691Y0172082D02*
X0202909Y0172082D01*
X0201173Y0174480D02*
X0209427Y0174480D01*
X0207191Y0175678D02*
X0203409Y0175678D01*
X0204298Y0176877D02*
X0206302Y0176877D01*
X0205877Y0178075D02*
X0204723Y0178075D01*
X0204563Y0180472D02*
X0206037Y0180472D01*
X0197609Y0178075D02*
X0196809Y0178075D01*
X0196809Y0176877D02*
X0197609Y0176877D01*
X0197609Y0175678D02*
X0196809Y0175678D01*
X0196809Y0174480D02*
X0197609Y0174480D01*
X0212991Y0174480D02*
X0213791Y0174480D01*
X0213791Y0175678D02*
X0212991Y0175678D01*
X0212991Y0176877D02*
X0213791Y0176877D01*
X0213791Y0178075D02*
X0212991Y0178075D01*
X0219590Y0175678D02*
X0223372Y0175678D01*
X0222483Y0176877D02*
X0220479Y0176877D01*
X0220904Y0178075D02*
X0222058Y0178075D01*
X0222218Y0180472D02*
X0220744Y0180472D01*
X0234309Y0185266D02*
X0238704Y0185266D01*
X0237644Y0186465D02*
X0235850Y0186465D01*
X0236462Y0187663D02*
X0237147Y0187663D01*
X0237117Y0188862D02*
X0236672Y0188862D01*
X0236564Y0190060D02*
X0237405Y0190060D01*
X0238127Y0191259D02*
X0236067Y0191259D01*
X0235051Y0182869D02*
X0239621Y0182869D01*
X0237831Y0181671D02*
X0236306Y0181671D01*
X0236925Y0180472D02*
X0237033Y0180472D01*
X0243817Y0180472D02*
X0244617Y0180472D01*
X0244617Y0179274D02*
X0243817Y0179274D01*
X0244617Y0178951D02*
X0244617Y0183151D01*
X0247579Y0183151D01*
X0248294Y0183038D01*
X0248983Y0182814D01*
X0249628Y0182485D01*
X0250214Y0182060D01*
X0250726Y0181548D01*
X0251152Y0180962D01*
X0251480Y0180317D01*
X0251704Y0179628D01*
X0251811Y0178951D01*
X0244617Y0178951D01*
X0244617Y0178075D02*
X0243817Y0178075D01*
X0243817Y0176877D02*
X0244617Y0176877D01*
X0244617Y0175678D02*
X0243817Y0175678D01*
X0243817Y0174480D02*
X0244617Y0174480D01*
X0249359Y0174480D02*
X0255257Y0174480D01*
X0253800Y0175678D02*
X0250816Y0175678D01*
X0251510Y0176877D02*
X0253106Y0176877D01*
X0252816Y0178075D02*
X0251799Y0178075D01*
X0251760Y0179274D02*
X0252855Y0179274D01*
X0252804Y0178951D02*
X0259998Y0178951D01*
X0259998Y0183151D01*
X0257036Y0183151D01*
X0256321Y0183038D01*
X0255633Y0182814D01*
X0254987Y0182485D01*
X0254402Y0182060D01*
X0253890Y0181548D01*
X0253464Y0180962D01*
X0253135Y0180317D01*
X0252912Y0179628D01*
X0252804Y0178951D01*
X0253214Y0180472D02*
X0251401Y0180472D01*
X0250603Y0181671D02*
X0254012Y0181671D01*
X0255802Y0182869D02*
X0248814Y0182869D01*
X0249731Y0185266D02*
X0254885Y0185266D01*
X0253825Y0186465D02*
X0250791Y0186465D01*
X0251287Y0187663D02*
X0253328Y0187663D01*
X0253298Y0188862D02*
X0251317Y0188862D01*
X0251030Y0190060D02*
X0253586Y0190060D01*
X0254308Y0191259D02*
X0250308Y0191259D01*
X0244617Y0182869D02*
X0243817Y0182869D01*
X0243817Y0181671D02*
X0244617Y0181671D01*
X0249406Y0172082D02*
X0255210Y0172082D01*
X0253933Y0170884D02*
X0250683Y0170884D01*
X0251185Y0169685D02*
X0253430Y0169685D01*
X0253298Y0168487D02*
X0251317Y0168487D01*
X0251132Y0167288D02*
X0253484Y0167288D01*
X0254061Y0166090D02*
X0250554Y0166090D01*
X0249096Y0164891D02*
X0255520Y0164891D01*
X0259998Y0174480D02*
X0260798Y0174480D01*
X0260798Y0175678D02*
X0259998Y0175678D01*
X0259998Y0176877D02*
X0260798Y0176877D01*
X0260798Y0178075D02*
X0259998Y0178075D01*
X0259998Y0179274D02*
X0260798Y0179274D01*
X0260798Y0180472D02*
X0259998Y0180472D01*
X0259998Y0181671D02*
X0260798Y0181671D01*
X0260798Y0182869D02*
X0259998Y0182869D01*
X0276180Y0178075D02*
X0276980Y0178075D01*
X0276980Y0176877D02*
X0276180Y0176877D01*
X0276180Y0175678D02*
X0276980Y0175678D01*
X0276980Y0174480D02*
X0276180Y0174480D01*
X0283641Y0184068D02*
X0306343Y0184068D01*
X0306343Y0185266D02*
X0284839Y0185266D01*
X0285594Y0186465D02*
X0306343Y0186465D01*
X0306343Y0187663D02*
X0285594Y0187663D01*
X0285594Y0188862D02*
X0306343Y0188862D01*
X0306343Y0190060D02*
X0285594Y0190060D01*
X0285281Y0191259D02*
X0306343Y0191259D01*
X0306343Y0192457D02*
X0284083Y0192457D01*
X0282884Y0193656D02*
X0300438Y0193656D01*
X0298425Y0194854D02*
X0281686Y0194854D01*
X0280487Y0196053D02*
X0297315Y0196053D01*
X0296819Y0197251D02*
X0279289Y0197251D01*
X0278090Y0198450D02*
X0296476Y0198450D01*
X0296476Y0199648D02*
X0276892Y0199648D01*
X0275693Y0200847D02*
X0296644Y0200847D01*
X0297141Y0202045D02*
X0274495Y0202045D01*
X0294648Y0182869D02*
X0306343Y0182869D01*
X0306343Y0181671D02*
X0295847Y0181671D01*
X0296999Y0180472D02*
X0306343Y0180472D01*
X0306343Y0179274D02*
X0296999Y0179274D01*
X0296999Y0178075D02*
X0306343Y0178075D01*
X0306343Y0176877D02*
X0296999Y0176877D01*
X0296093Y0175678D02*
X0306343Y0175678D01*
X0310280Y0172082D02*
X0294728Y0172082D01*
X0295926Y0170884D02*
X0310280Y0170884D01*
X0310280Y0169685D02*
X0296499Y0169685D01*
X0296499Y0168487D02*
X0310280Y0168487D01*
X0310280Y0167288D02*
X0296499Y0167288D01*
X0295798Y0166090D02*
X0310280Y0166090D01*
X0310280Y0164891D02*
X0294599Y0164891D01*
X0304374Y0193656D02*
X0306343Y0193656D01*
D22*
X0229572Y0188984D02*
X0229444Y0187783D01*
X0224444Y0182783D01*
X0139444Y0182783D01*
X0136944Y0180283D01*
X0063194Y0180283D01*
X0049444Y0194033D01*
X0049444Y0197783D01*
X0050694Y0197783D01*
X0053194Y0200283D01*
X0059444Y0200283D01*
X0064444Y0195283D01*
X0064729Y0195087D01*
X0059444Y0190283D02*
X0055694Y0194033D01*
X0054729Y0195087D01*
X0059444Y0190283D02*
X0136944Y0190283D01*
X0143194Y0184033D01*
X0209444Y0184033D01*
X0213194Y0187783D01*
X0213391Y0188984D01*
D23*
X0208394Y0193883D02*
X0264194Y0193883D01*
X0268694Y0189383D01*
X0268694Y0186683D01*
X0271394Y0183983D01*
X0281294Y0183983D01*
X0283994Y0186683D01*
X0283994Y0190283D01*
X0271394Y0202883D01*
X0052694Y0202883D01*
X0045494Y0195683D01*
X0044729Y0195087D01*
X0094729Y0195087D02*
X0095694Y0195283D01*
X0095694Y0200283D01*
X0264444Y0200283D01*
X0275694Y0189033D01*
X0276580Y0188551D01*
X0208394Y0193883D02*
X0203894Y0189383D01*
X0197594Y0189383D01*
X0197209Y0188984D01*
X0213794Y0138083D02*
X0148094Y0138083D01*
X0138194Y0128183D01*
X0071594Y0128183D01*
X0065294Y0134483D01*
X0064729Y0135087D01*
X0057194Y0129983D02*
X0049994Y0129983D01*
X0045494Y0134483D01*
X0044729Y0135087D01*
X0054729Y0135087D02*
X0055394Y0134483D01*
X0063494Y0126383D01*
X0139094Y0126383D01*
X0139994Y0127283D01*
X0208394Y0127283D01*
X0211094Y0124583D01*
X0211094Y0100283D01*
X0235394Y0075983D01*
X0235394Y0073283D01*
X0236028Y0072606D01*
X0236028Y0122606D02*
X0235394Y0122783D01*
X0229094Y0122783D01*
X0213794Y0138083D01*
X0205694Y0122783D02*
X0206028Y0122606D01*
X0205694Y0122783D02*
X0064394Y0122783D01*
X0057194Y0129983D01*
X0069794Y0152483D02*
X0029294Y0152483D01*
X0017594Y0140783D01*
X0017594Y0129983D01*
X0050894Y0096683D01*
X0094094Y0096683D01*
X0110294Y0080483D01*
X0110910Y0080165D01*
X0120194Y0080483D02*
X0120910Y0080165D01*
X0120194Y0080483D02*
X0101294Y0099383D01*
X0050894Y0099383D01*
X0019394Y0130883D01*
X0019394Y0139883D01*
X0030194Y0150683D01*
X0078794Y0150683D01*
X0094094Y0135383D01*
X0094729Y0135087D01*
X0076994Y0102983D02*
X0069794Y0102983D01*
X0068894Y0103883D01*
X0053594Y0103883D01*
X0052918Y0104063D01*
X0071594Y0080483D02*
X0077894Y0086783D01*
X0093194Y0086783D01*
X0096794Y0083183D01*
X0096794Y0068783D01*
X0139994Y0025583D01*
X0139994Y0023783D01*
X0140044Y0023000D01*
X0130044Y0023000D02*
X0129194Y0023783D01*
X0129194Y0033683D01*
X0083294Y0079583D01*
X0081494Y0079583D01*
X0080910Y0080165D01*
X0071594Y0080483D02*
X0070910Y0080165D01*
D24*
X0140989Y0116583D03*
X0168548Y0116583D03*
X0077997Y0159890D03*
D25*
X0140989Y0116583D02*
X0168548Y0116583D01*
D26*
X0180359Y0108709D02*
X0180359Y0045717D01*
X0160674Y0026031D01*
X0160674Y0023197D01*
X0161934Y0021937D01*
X0181619Y0021937D02*
X0196107Y0045717D01*
X0196107Y0077213D01*
X0206028Y0082606D01*
X0180359Y0108709D02*
X0184296Y0112646D01*
X0196107Y0112646D01*
X0196107Y0112606D01*
X0206028Y0112606D01*
D27*
X0076994Y0102983D03*
M02*
