%
M48
M72
T01C0.02362
T02C0.02400
T03C0.03200
T04C0.03937
T05C0.04000
T06C0.04400
T07C0.04700
T08C0.08661
%
T01
X77997Y159890
X140989Y116583
X168548Y116583
T02
X76994Y102983
T03
X47170Y35126
X47170Y55126
X54493Y76504
X70910Y80165
X80910Y80165
X90910Y80165
X100910Y80165
X110910Y80165
X120910Y80165
X130910Y80165
X130910Y110165
X120910Y110165
X110910Y110165
X100910Y110165
X90910Y110165
X80910Y110165
X70910Y110165
X56973Y113433
X56973Y123433
X52918Y104063
X51737Y92252
X14493Y76504
X11737Y92252
X12918Y104063
X98587Y47567
X108587Y47567
X205202Y47567
X215202Y47567
X231580Y142055
X221580Y142055
X292249Y168551
X292249Y178551
X10359Y186425
X10359Y176425
T04
X203824Y24299
X213824Y24299
X223824Y24299
X233824Y24299
X243824Y24299
X140044Y23000
X130044Y23000
X120044Y23000
X110044Y23000
X100044Y23000
T05
X24729Y195087
X34729Y195087
X44729Y195087
X54729Y195087
X64729Y195087
X74729Y195087
X84729Y195087
X94729Y195087
X104729Y195087
X114729Y195087
X124729Y195087
X134729Y195087
X134729Y185087
X134729Y175087
X134729Y165087
X134729Y155087
X134729Y145087
X134729Y135087
X124729Y135087
X114729Y135087
X104729Y135087
X94729Y135087
X84729Y135087
X74729Y135087
X64729Y135087
X54729Y135087
X44729Y135087
X34729Y135087
X24729Y135087
X64729Y145087
X64729Y185087
X197209Y188984
X197209Y178984
X197209Y168984
X213391Y168984
X213391Y178984
X213391Y188984
X229572Y188984
X244217Y188551
X244217Y178551
X229572Y178984
X229572Y168984
X244217Y168551
X260398Y168551
X260398Y178551
X260398Y188551
X276580Y188551
X276580Y178551
X276580Y168551
T06
X149099Y61937
X189099Y61937
X206028Y62606
X206028Y72606
X206028Y82606
X206028Y92606
X206028Y102606
X206028Y112606
X206028Y122606
X206028Y132606
X236028Y132606
X236028Y122606
X236028Y112606
X236028Y102606
X236028Y92606
X236028Y82606
X236028Y72606
X236028Y62606
T07
X17800Y60402
X17800Y40717
X161934Y21937
X181619Y21937
X267603Y21937
X287288Y21937
T08
X11068Y199260
X11068Y18157
X302406Y199260
X306343Y18157
M30
